<?xml version="1.0" encoding="utf-8"?>
<!-- Generator: Adobe Illustrator 16.0.0, SVG Export Plug-In . SVG Version: 6.00 Build 0)  -->
<!DOCTYPE svg PUBLIC "-//W3C//DTD SVG 1.1//EN" "http://www.w3.org/Graphics/SVG/1.1/DTD/svg11.dtd">
<svg version="1.1" id="Layer_1" xmlns="http://www.w3.org/2000/svg" xmlns:xlink="http://www.w3.org/1999/xlink" x="0px" y="0px"
	 width="1400px" height="980px" viewBox="0 0 1400 980" enable-background="new 0 0 1400 980" xml:space="preserve">
<rect fill="#FFF0E3" width="1400" height="980"/>
<ellipse fill="#E5CCAB" cx="173.6" cy="709.8" rx="64.5" ry="17.2"/>
<ellipse fill="#E5CCAB" cx="745.6" cy="709.8" rx="64.5" ry="17.2"/>
<ellipse fill="#E5CCAB" cx="1003.6" cy="709.8" rx="64.5" ry="17.2"/>
<ellipse fill="#E5CCAB" cx="1260.1" cy="709.8" rx="79.9" ry="17.2"/>
<ellipse fill="#E5CCAB" cx="477.6" cy="709.8" rx="76.4" ry="17.2"/>
<g>
	
		<ellipse transform="matrix(0.963 -0.2694 0.2694 0.963 -112.8172 44.2535)" fill="#DED8A6" cx="104.8" cy="433.1" rx="7.7" ry="15"/>
	
		<ellipse transform="matrix(-0.963 -0.2694 0.2694 -0.963 352.6019 914.6815)" fill="#C4BF94" cx="239.1" cy="433.1" rx="7.7" ry="15"/>
	<path fill="#E1A626" d="M173.6,643.3V661l-10,3.3l-0.7,13.7l-19.7,3l-5.3-29.7c0,0,9-13.3,10.3-13.7
		C149.6,637.3,173.3,637,173.6,643.3z"/>
	<path fill="#E1A626" d="M173.5,643.3V661l10,3.3l0.7,13.7l19.7,3l5.3-29.7c0,0-9-13.3-10.3-13.7C197.5,637.3,173.8,637,173.5,643.3
		z"/>
	<polygon fill="#B59248" points="204.6,683.5 183.1,680.6 183,677.6 184.2,678 203.8,681 	"/>
	<polygon fill="#DCD6A5" points="202.6,683.1 199.2,697.8 187.2,697.9 184.2,680.5 	"/>
	<path fill="#636250" d="M199.7,696.6l9.5,9.5c0,0,2.5,7-1.5,7.2c-4,0.2-11.2-0.3-11.2-0.3s-11-8.2-11-8.7s1.8-6.4,1.8-6.4
		S197.7,696.6,199.7,696.6z"/>
	<path fill="#BE4F38" d="M165.1,563.3h3.8c-5.1-4.1-13.9-10.4-18.4-9.4l-21.4,76.7c0,0,20.5,18.3,24.8,18.7
		c2.3,0.2,7.7-3.3,12.1-6.6h-0.9V563.3z"/>
	<path fill="#BE4F38" d="M180.5,642.6h-0.9c4.4,3.3,9.7,6.8,12.1,6.6c4.3-0.3,24.8-18.7,24.8-18.7l-21.4-76.7
		c-4.5-0.9-13.2,5.3-18.4,9.4h3.8V642.6z"/>
	<path fill="#9B5743" d="M176.7,563.3h-7.8c2.1,1.7,3.6,3,3.9,3.3C173.1,566.3,174.6,565,176.7,563.3z"/>
	<path fill="#9B5743" d="M172.8,637.3c-0.5,0.4-3.4,2.8-6.8,5.4h13.6C176.2,640.1,173.3,637.7,172.8,637.3z"/>
	<path fill="#E8DA18" d="M172.7,637.2v-70.6c0,0,0,0,0.1-0.1c-0.3-0.3-1.8-1.6-3.9-3.3h-3.8v79.3h0.9
		C169.4,640.1,172.3,637.7,172.7,637.2C172.8,637.2,172.7,637.2,172.7,637.2z"/>
	<path fill="#E8DA18" d="M172.9,566.6v70.6c0,0,0,0-0.1,0.1c0.5,0.4,3.4,2.8,6.8,5.4h0.9v-79.3h-3.8
		C174.6,565,173.1,566.3,172.9,566.6C172.8,566.6,172.9,566.6,172.9,566.6z"/>
	<path fill="#9B5743" d="M172.9,566.6C172.9,566.6,172.8,566.6,172.9,566.6c-0.1,0-0.2,0-0.2,0v70.6c0,0,0,0,0.1,0.1
		c0,0,0.1-0.1,0.1-0.1V566.6z"/>
	<path fill="#393C97" d="M152,536.2c0,0,2.8-3.5,5.8-1.7l7.6,16.2C165.3,550.8,151.2,539.6,152,536.2z"/>
	<path fill="#26247B" d="M152,536.2c0,0-9.2,10.9-9,15.7c0.3,8.1,5.5,15,25.2,12.1l-0.2-11.1C168,552.9,150.9,538.5,152,536.2z"/>
	<path fill="#2E3192" d="M168.2,564l-0.1-9c-0.4-0.1-0.8-0.2-1.3-0.3c0,0-8,3.4-10.5,9.3C159.1,565.2,164.1,564.5,168.2,564z"/>
	<path fill="#BF8E1E" d="M173.5,642.7C173.5,642.7,173.5,642.7,173.5,642.7l-27.5-2.7c-3.1,3.9-8,11.2-8,11.2l0.9,4.9l0.5,1.7
		l13.5-4.5l-0.5,6.5L173.5,642.7z"/>
	<path fill="#BF8E1E" d="M173.7,642.7C173.7,642.7,173.7,642.7,173.7,642.7l27.5-2.7c3.1,3.9,8,11.2,8,11.2l-0.9,4.9l-0.5,1.7
		l-13.5-4.5l0.5,6.5L173.7,642.7z"/>
	<path d="M171.4,566.7c0,1.4-0.1,0.3-1.3,0.3l0,0c-1.2,0-2.2-1.2-2.2-2.6l-1.5-11.9c0-1.4,2.5-1.8,3.7-1.8l0,0
		c1.2,0,1.5,1.2,1.5,2.6L171.4,566.7z"/>
	<path fill="#393C97" d="M190.6,536.2c0,0-2.8-3.5-5.8-1.7l-7.6,16.2C177.3,550.8,191.4,539.6,190.6,536.2z"/>
	<path fill="#26247B" d="M190.6,536.2c0,0,9.2,10.9,9,15.7c-0.3,8.1-5.5,15-25.2,12.1l0.2-11.1C174.6,552.9,191.7,538.5,190.6,536.2
		z"/>
	<path fill="#2E3192" d="M174.4,564l0.1-9c0.4-0.1,0.8-0.2,1.3-0.3c0,0,8,3.4,10.5,9.3C183.5,565.2,178.5,564.5,174.4,564z"/>
	<path d="M171.2,566.7c0,1.4,0.1,0.3,1.3,0.3l0,0c1.2,0,2.2-1.2,2.2-2.6l1.5-11.9c0-1.4-2.5-1.8-3.7-1.8l0,0c-1.2,0-1.5,1.2-1.5,2.6
		L171.2,566.7z"/>
	<path fill="#884B39" d="M196.6,560.2c0,0,27.3,11.2,17,59.7L196.6,560.2z"/>
	<path fill="#2E3192" d="M157.1,564.3c0,0-0.5,57.3-26.8,66.7c-20.4,7.2,6,33.1,7.3,26.7c4-19,16.3-8.4,16.3-8.4s12-57.3,11.2-84.6
		L157.1,564.3z"/>
	<path fill="#2E3192" d="M186.6,564.3c0,0,0.5,57.3,26.8,66.7c20.4,7.2-6,33.1-7.3,26.7c-4-19-16.3-8.4-16.3-8.4s-12-57.3-11.2-84.6
		L186.6,564.3z"/>
	<polygon fill="#B59248" points="142.5,683.5 164,680.6 164.1,677.6 162.9,678 143.3,681 	"/>
	<polygon fill="#DCD6A5" points="144.5,683.1 147.8,697.8 159.8,697.9 162.8,680.5 	"/>
	<g>
		<g>
			<path fill="#A67C54" d="M204.2,651.4c-51.7-32.7-59.7-86.9-60-89.2c0,0,0.4-3.9,1-3.3c3,3.7,8.8,4.7,8.8,4.7
				c0.1,0.5,15.7,55.4,63.7,85.9l-6,6.6L204.2,651.4z"/>
		</g>
	</g>
	<circle fill="#E7D31B" cx="127.6" cy="638.2" r="2.5"/>
	<circle fill="#E7D31B" cx="138.6" cy="632.2" r="2.5"/>
	<circle fill="#E7D31B" cx="148.4" cy="621.9" r="2.5"/>
	<circle fill="#E7D31B" cx="154.4" cy="608.4" r="2.5"/>
	<circle fill="#E7D31B" cx="160.9" cy="569.1" r="2.5"/>
	<circle fill="#E7D31B" cx="216.2" cy="638.2" r="2.5"/>
	<circle fill="#E7D31B" cx="205.2" cy="632.2" r="2.5"/>
	<circle fill="#E7D31B" cx="195.3" cy="621.9" r="2.5"/>
	<circle fill="#E7D31B" cx="189.3" cy="608.4" r="2.5"/>
	<circle fill="#E7D31B" cx="182.8" cy="569.1" r="2.5"/>
	<path fill="#884B39" d="M145.3,571c0,0-10.3,14-15.3,15.7c0,0,3.7,11.3-2,20c0,0,7.3-4,10-7C140.6,596.6,145.3,574.6,145.3,571z"/>
	<path fill="#2E3192" d="M134.7,583.2c-1.8,1.7-3.4,2.9-4.7,3.4c0,0,3.7,11.3-2,20c0,0,4-2.2,7.1-4.5c3.9-12.7-0.2-18.7-0.2-18.7
		L134.7,583.2z"/>
	<path fill="#C2BE93" d="M111.8,601.7l2.7-10.7c1.3-5.1,5.8-8.6,10.8-8.9c-0.6-0.3-1.2-0.5-1.9-0.7c-6.3-1.6-12.8,2.2-14.4,8.5
		l-2.7,10.7c-1.6,6.3,2.2,12.8,8.5,14.4c1.2,0.3,2.4,0.4,3.6,0.3C113.3,613.1,110.3,607.4,111.8,601.7z"/>
	<path fill="#DCD6A5" d="M129.2,606.5l2.7-10.7c1.4-5.7-1.5-11.4-6.7-13.7c-5,0.3-9.4,3.8-10.8,8.9l-2.7,10.7
		c-1.4,5.7,1.5,11.4,6.7,13.7C123.4,615.1,127.9,611.7,129.2,606.5z"/>
	<path fill="#DED8A6" d="M113.5,631.6c-0.5,1.6-2.1,2.5-3.7,2l0,0c-1.6-0.5-2.5-2.1-2-3.7l26-89.8c0.5-1.6,2.1-2.5,3.7-2l0,0
		c1.6,0.5,2.5,2.1,2,3.7L113.5,631.6z"/>
	<path fill="#DED8A6" d="M172.5,377.3c-14.4-5.1-69-21.1-66.4,29.3c0,0,13.5,72.5,22.5,83c9,10.5,33,60.6,36.3,60.5
		c0.1,0,2.1,2.2,2.2,2.2l2-1.5c0,0,1.5,0,3.5-0.1c1.9,0,3.5,0.1,3.5,0.1v0c0.1,0,0.1,0,0.2,0c3.3,0.1,31.2-50.6,40.2-61.1
		c9-10.5,22.5-83,22.5-83C241.4,356.3,186.9,372.3,172.5,377.3z"/>
	<path fill="#C4BF94" d="M141.3,508.5c9.8,15.8,21.4,35.6,25.9,40.9l25.2-22.5c2.2-3.5,4.4-7.2,6.6-10.8
		C166.9,545,148.4,512.8,141.3,508.5z"/>
	<path fill="#C5C195" d="M172.2,529.6l20.5-3.3c8.9-14.5,18.9-31.2,23.6-36.8c9-10.5,22.5-83,22.5-83c0.8-15.9-4.1-25.2-11.6-30.3
		l-55,3.3V529.6z"/>
	<path fill="#704727" d="M207.1,381.3c0,0,22,12.7,24,18.7l-4.7,0.7c0,0,6,18,9.3,18c3.3,0,10.7-1.3,10-10.7c-0.7-9.3-1.3-14,1.3-16
		s9.3-6.7,9.3-6.7S220.4,378.6,207.1,381.3z"/>
	<path fill="#414042" d="M42.6,362.9c0,0,57.8-115.6,198.4-67.4c0,0,17.3,3.9,23.1,13.5c5.8,9.6,17.3,11.6,17.3,11.6
		s-3.9,28.9-1.9,48.2c1.9,19.3,15.4,67.4-3.9,63.6c-19.3-3.9,3.9-69.4-181.1-48.2c0,0-59.7,12.5-66.5-8.7
		C28.1,375.5,26.2,355.2,42.6,362.9z"/>
	<circle fill="#E7D31B" cx="260.6" cy="339.3" r="5.9"/>
	<path fill="#ECE7E2" d="M124.5,421.5c0,0,1.8,16.9,4.6,19.7s15.7-6.8,28-1.5c0,0,3.7-10.5,4.3-14.5
		C162,421.2,124.5,421.5,124.5,421.5z"/>
	<ellipse fill="#AAA782" cx="143.9" cy="426.9" rx="13.6" ry="7"/>
	<ellipse cx="143.9" cy="426.9" rx="5.9" ry="4.5"/>
	<path fill="#704727" d="M135.4,381.1c0,0-22,12.7-24,18.7l4.7,0.7c0,0-6,18-9.3,18c-3.3,0-10.7-1.3-10-10.7c0.7-9.3,1.3-14-1.3-16
		c-2.7-2-9.3-6.7-9.3-6.7S122.1,378.5,135.4,381.1z"/>
	<path fill="#DCC9B7" d="M119.6,418c0,0,17.3,13,43.7,5.7C163.3,423.6,151.3,394.3,119.6,418z"/>
	<ellipse fill="#EADED4" cx="140.6" cy="414.2" rx="8.2" ry="2.3"/>
	<path fill="#704727" d="M161.6,467.6c0,0-7-1-16.3,12.7c-4.5,6.6-24.3,17.7-30,10.3c0,0,3.3,12.7,18,11c9.7-1.1,29.8-5,39.2-21
		C172.5,480.6,166.6,467.3,161.6,467.6z"/>
	<path fill="#704727" d="M182.5,467.6c0,0,7-1,16.3,12.7c4.5,6.6,24.3,17.7,30,10.3c0,0-3.3,12.7-18,11c-9.7-1.1-29.8-5-39.2-21
		C171.6,480.6,177.5,467.3,182.5,467.6z"/>
	<path fill="none" d="M121.6,421c0,0,1.8,20.3,4.5,22c2.7,1.7,8.8-1.3,9.7-1.7c0.8-0.3,14.7-5.5,21.2-0.7l4.7-15.7"/>
	<path fill="#B6A89F" d="M161.8,424c-0.2,2.6-2.4,8.1-2.4,8.1l-0.1,0c-1,3.3-2.2,6.6-2.6,7.8c-2.7-1.1-5.5-1.6-8.6-1.6
		c-5.2,0-10,1.4-13.8,2.6c-3.6,1.1-6.4,1.8-7.3,0.9c-1.4-1.4-2.6-6.5-3.5-11.6l-0.1,0l-2.3-9.9l0.1,0.5c0.1,0.8,2.1,18.5,5.1,21.6
		c0.5,0.5,1.2,0.7,2.1,0.7c1.5,0,3.6-0.6,6.2-1.4c3.8-1.1,8.5-2.6,13.5-2.6c3.2,0,6,0.6,8.7,1.7l0.5,0.2l0.2-0.5
		c0.2-0.5,4-11.4,4.7-15.8C162.1,424.8,162.1,424.4,161.8,424z"/>
	<path fill="#B6A89F" d="M163.7,423.4c-0.1-0.2-6.4-15.2-21.5-15.2c-6.9,0-14.6,3.1-22.9,9.3l-0.5,0.4l0.5,0.4
		c0.1,0,3.4,2.5,9.3,4.7c0,0-7-4.4-8.1-5.1c7.9-5.8,15.2-8.7,21.8-8.7c12.9,0,19.1,11.5,20.4,14.1c-4.2,1.1-12.6,3-12.6,3
		c4.4-0.2,8.9-0.9,13.4-2.2l0.5-0.2L163.7,423.4z"/>
	<path fill="#ECE7E2" d="M219.1,421.5c0,0-1.8,16.9-4.6,19.7s-15.7-6.8-28-1.5c0,0-3.7-10.5-4.3-14.5
		C181.5,421.2,219.1,421.5,219.1,421.5z"/>
	<ellipse fill="#AAA782" cx="199.7" cy="426.9" rx="13.6" ry="7"/>
	<ellipse cx="199.7" cy="426.9" rx="5.9" ry="4.5"/>
	<path fill="#DCC9B7" d="M224,418c0,0-17.3,13-43.7,5.7C180.3,423.6,192.3,394.3,224,418z"/>
	<ellipse fill="#EADED4" cx="202.6" cy="413.5" rx="8.2" ry="2.3"/>
	<path fill="#B6A89F" d="M181.8,424c0.2,2.6,2.4,8.1,2.4,8.1l0.1,0c1,3.3,2.2,6.6,2.6,7.8c2.7-1.1,5.5-1.6,8.6-1.6
		c5.2,0,10,1.4,13.8,2.6c3.6,1.1,6.4,1.8,7.3,0.9c1.4-1.4,2.6-6.5,3.5-11.6l0.1,0l2.3-9.9l-0.1,0.5c-0.1,0.8-2.1,18.5-5.1,21.6
		c-0.5,0.5-1.2,0.7-2.1,0.7c-1.5,0-3.6-0.6-6.2-1.4c-3.8-1.1-8.5-2.6-13.5-2.6c-3.2,0-6,0.6-8.7,1.7l-0.5,0.2l-0.2-0.5
		c-0.2-0.5-4-11.4-4.7-15.8C181.4,424.8,181.5,424.4,181.8,424z"/>
	<path fill="#B6A89F" d="M179.8,423.4c0.1-0.2,6.4-15.2,21.5-15.2c6.9,0,14.6,3.1,22.9,9.3l0.5,0.4l-0.5,0.4c-0.1,0-3.4,2.5-9.3,4.7
		c0,0,7-4.4,8.1-5.1c-7.9-5.8-15.2-8.7-21.8-8.7c-12.9,0-19.1,11.5-20.4,14.1c4.2,1.1,12.6,3,12.6,3c-4.4-0.2-8.9-0.9-13.4-2.2
		l-0.5-0.2L179.8,423.4z"/>
	<g>
		<path fill="#704727" d="M119.8,403.5c0,0,30.2-4.1,44.1,6.6l2.3-9.4C166.2,400.6,133.7,393.2,119.8,403.5z"/>
		<path fill="#704727" d="M164.3,411.5l2.5-10.7l0.9-1C167.8,399.8,166.9,408,164.3,411.5z"/>
		<path fill="#704727" d="M166.5,409.7l2-8.7l0.8-0.8C169.3,400.2,168.6,406.9,166.5,409.7z"/>
	</g>
	<g>
		<path fill="#704727" d="M224.9,400.9c0,0-30.4-2.2-43.5,9.4l-2.9-9.2C178.4,401.1,210.3,391.5,224.9,400.9z"/>
		<path fill="#704727" d="M180.9,411.8l-3.2-10.5l-1-0.9C176.8,400.4,178.1,408.5,180.9,411.8z"/>
		<path fill="#704727" d="M178.7,410.1l-2.6-8.6l-0.8-0.7C175.3,400.8,176.4,407.4,178.7,410.1z"/>
	</g>
	<path fill="#4A4B4C" d="M284.5,400.4c-1.6-11.7-4.2-24-5-31.7c-0.1-1.3-0.2-2.7-0.3-4.1c-26.6-9.7-103.6-32.1-197.3-8
		c0,0-20.6,6.3-37.1,2.2c-1.5,2.6-2.3,4.1-2.3,4.1c-1.3-0.6-2.4-1-3.5-1.3c4.3,3.6,11.7,7,24.1,6.3
		C89.1,366.6,231.3,336.3,284.5,400.4z"/>
	<path fill="#C2BE93" d="M131.2,590.9c0,0.5-0.3,0.9-0.7,0.9h-5.6c-0.4,0-0.7-0.4-0.7-0.9l0,0c0-0.5,0.3-0.9,0.7-0.9h5.6
		C130.9,590,131.2,590.4,131.2,590.9L131.2,590.9z"/>
	<path fill="#C2BE93" d="M130.1,598.9c0,0.5-0.3,0.9-0.7,0.9h-5.6c-0.4,0-0.7-0.4-0.7-0.9l0,0c0-0.5-0.1-0.4,0.3-0.4l6-0.5
		C129.8,598,130.1,598.4,130.1,598.9L130.1,598.9z"/>
	<path fill="#C2BE93" d="M127.3,607.1c0,0.5-0.3,0.9-0.7,0.9H121c-0.4,0-0.7-0.4-0.7-0.9l0,0c0-0.5,0.7-0.3,1.1-0.3l5.2-0.5
		C127,606.3,127.3,606.6,127.3,607.1L127.3,607.1z"/>
	<path fill="#B1817F" d="M181.8,502.6c-0.5,0.7-1.6,0.8-2.4,0.4c-3.4-1.7-7.5-1.7-11,0c-0.8,0.4-1.9,0.3-2.4-0.4l0,0
		c-0.5-0.7-0.1-1.9,1-2.5c4.4-2.2,9.5-2.2,13.9,0C181.9,500.6,182.3,501.8,181.8,502.6L181.8,502.6z"/>
	<path fill="#E1A29F" d="M168.6,428.6l-7.7,52c0,0,5.5,5.2,10.9,5v-59.4C170.9,425.4,169.1,424.6,168.6,428.6z"/>
	<path fill="#C08B89" d="M184,480.6l-7.7-52c-0.6-4.9-3.2-2.6-3.8-1.8c-0.1-0.1-0.3-0.3-0.6-0.5v59.4c0.2,0,0.4,0,0.6,0
		C178.1,486.2,184,480.6,184,480.6z"/>
	<path fill="#636250" d="M149.6,710c2.3-0.2,10.8-8.5,10.8-8.5c0.2,0,0.3,0,0.5,0c-0.5-1.7-1-3.6-1-3.6s-10.4-1.2-12.4-1.2l-9.5,9.5
		C139.8,711.5,147.2,710.1,149.6,710z"/>
	<path fill="#38362B" d="M139.4,713.3c4,0.2,11.2-0.3,11.2-0.3s11-8.2,11-8.7c0-0.2-0.3-1.5-0.7-2.8c-0.2,0-0.3,0-0.5,0
		c0,0-8.5,8.3-10.8,8.5c-2.3,0.2-9.8,1.5-11.6-3.8C137.9,706.1,135.4,713.1,139.4,713.3z"/>
	<path fill="#38362B" d="M207.8,713.3c-4,0.2-11.2-0.3-11.2-0.3s-11-8.2-11-8.7c0-0.2,0.3-1.5,0.7-2.8c0.2,0,0.3,0,0.5,0
		c0,0,8.5,8.3,10.8,8.5c2.3,0.2,9.8,1.5,11.6-3.8C209.3,706.1,211.8,713.1,207.8,713.3z"/>
</g>
<g>
	<path fill="#633E20" d="M793.9,353.8c5.5-29.2-92.1-54.7-97.9-14.8c-2.5,17.1,24,36.7,42.4,46.8c12.5,6.8,47,16.3,53,1.8
		c4.7-11.6-2.8-26.8,3.9-37.4"/>
	<path fill="#704727" d="M730.6,345c0-12.1-25.1-15.5-33.9-14.2c-8.7,1.4-8.5,4.3-11.5,10.8c-2.9,6.4-5.5,5.4-12.7,6
		c-11.5,0.9-21.6,10.7-21.4,22.7c0.2,6.6,4.1,8.1,8.1,12.5c4.7,5.2,4.2,7.6,2,14.2c-3.9,11.6-15.7,22.6-14.7,36
		c0.6,7.8,6.8,11.6,12,16c4.9,4.2,8.6,9.6,11.5,15.4c5.6,11.1,6.4,23.1,5.8,35.3c-0.6,11.2-6.1,44-22.6,37.5
		c-5.6-2.2-8-6.8-7.9-12.7c4.1-2.2-2.5-9.3-6,0c-1.8,4.7-1.9,14.7,0.7,19.2c7.3,12.7,28.9,14.1,39.2,5.2c8.3-7.2,6-22.5,20.7-18.5
		c6.1,1.6,7.1,2.3,14,0.7c7.4-1.7,18.2-1.8,24.7-6c5.8-3.7,4.1-8.8,2.7-14.9c-2.5-10.6-4.6-20.4-4.7-31.3c-0.2-19.9-3-40.8-0.7-60.5
		c1.3-11.2,4.5-22.5,4-34c-0.2-5.3-2.2-9.6-2.7-14.7c-0.6-6.2-0.4-10.3-2.8-16c-1.5-3.4-3.7-6.6-4.5-10"/>
	<path fill="#704727" d="M759.4,345c0-12.1,25.1-15.5,33.9-14.2c8.7,1.4,8.5,4.3,11.5,10.8c2.9,6.4,5.5,5.4,12.7,6
		c11.5,0.9,21.6,10.7,21.4,22.7c-0.2,6.6-4.1,8.1-8.1,12.5c-4.7,5.2-4.2,7.6-2,14.2c3.9,11.6,15.7,22.6,14.7,36
		c-0.6,7.8-6.8,11.6-12,16c-4.9,4.2-8.6,9.6-11.5,15.4c-5.6,11.1-6.4,23.1-5.8,35.3c0.6,11.2,6.1,44,22.6,37.5
		c5.6-2.2,8-6.8,7.9-12.7c-4.1-2.2,2.5-9.3,6,0c1.8,4.7,1.9,14.7-0.7,19.2c-7.3,12.7-28.9,14.1-39.2,5.2c-8.3-7.2-6-22.5-20.7-18.5
		c-6.1,1.6-7.1,2.3-14,0.7c-7.4-1.7-18.2-1.8-24.7-6c-5.8-3.7-4.1-8.8-2.7-14.9c2.5-10.6,4.6-20.4,4.7-31.3
		c0.2-19.9,3-40.8,0.7-60.5c-1.3-11.2-4.5-22.5-4-34c0.2-5.3,2.2-9.6,2.7-14.7c0.6-6.2,0.4-10.3,2.8-16c1.5-3.4,3.7-6.6,4.5-10"/>
	<path fill="#5C4639" d="M763.6,536.2c0,0,9.2,10.9,9,15.7c-0.3,8.1-5.5,15-25.2,12.1l0.2-11.1C747.6,552.9,764.7,538.5,763.6,536.2
		z"/>
	
		<ellipse transform="matrix(0.963 -0.2694 0.2694 0.963 -91.6323 198.6165)" fill="#DED8A6" cx="677.8" cy="433.1" rx="7.7" ry="15"/>
	
		<ellipse transform="matrix(-0.963 -0.2694 0.2694 -0.963 1477.3485 1069.0557)" fill="#C4BF94" cx="812" cy="433.1" rx="7.7" ry="15"/>
	<path fill="#8F5230" d="M746.6,643.3V661l-10,3.3l-0.7,13.7l-19.7,3l-5.3-29.7c0,0,9-13.3,10.3-13.7
		C722.6,637.3,746.2,637,746.6,643.3z"/>
	<path fill="#8F5230" d="M746.5,643.3V661l10,3.3l0.7,13.7l19.7,3l5.3-29.7c0,0-9-13.3-10.3-13.7C770.5,637.3,746.8,637,746.5,643.3
		z"/>
	<polygon fill="#422A1D" points="777.6,683.5 756.1,680.6 756,677.6 757.1,678 776.8,681 	"/>
	<polygon fill="#DCD6A5" points="775.6,683.1 772.2,697.8 760.2,697.9 757.2,680.5 	"/>
	<path fill="#636250" d="M772.6,696.6l9.5,9.5c0,0,2.5,7-1.5,7.2c-4,0.2-11.2-0.3-11.2-0.3s-11-8.2-11-8.7s1.8-6.4,1.8-6.4
		S770.6,696.6,772.6,696.6z"/>
	<path fill="#9B5743" d="M749.7,563.3h-7.8c2.1,1.7,3.6,3,3.9,3.3C746.1,566.3,747.6,565,749.7,563.3z"/>
	<path fill="#9B5743" d="M745.8,637.3c-0.5,0.4-3.4,2.8-6.8,5.4h13.6C749.1,640.1,746.2,637.7,745.8,637.3z"/>
	<path fill="#9B5743" d="M745.8,566.6C745.8,566.6,745.8,566.6,745.8,566.6c-0.1,0-0.2,0-0.2,0v70.6c0,0,0,0,0.1,0.1
		c0,0,0.1-0.1,0.1-0.1V566.6z"/>
	<path fill="#463429" d="M725,536.2c0,0,2.8-3.5,5.8-1.7l7.6,16.2C738.3,550.8,724.2,539.6,725,536.2z"/>
	<path fill="#5C4639" d="M725,536.2c0,0-9.2,10.9-9,15.7c0.3,8.1,5.5,15,25.2,12.1l-0.2-11.1C741,552.9,723.8,538.5,725,536.2z"/>
	<path fill="#463429" d="M763.6,536.2c0,0-2.8-3.5-5.8-1.7l-7.6,16.2C750.2,550.8,764.4,539.6,763.6,536.2z"/>
	<path fill="#422A1D" d="M769.6,560.2c0,0,27.3,11.2,17,59.7L769.6,560.2z"/>
	<path fill="#422A1D" d="M721.9,560.2c0,0-27.3,11.2-17,59.7L721.9,560.2z"/>
	<polygon fill="#422A1D" points="715.4,683.5 736.9,680.6 737.1,677.6 735.9,678 716.2,681 	"/>
	<polygon fill="#DCD6A5" points="717.4,683.1 720.8,697.8 732.8,697.9 735.8,680.5 	"/>
	<path fill="#DED8A6" d="M745.4,377.3c-14.4-5.1-69-21.1-66.4,29.3c0,0,13.5,72.5,22.5,83c9,10.5,33,60.6,36.3,60.5
		c0.1,0,2.1,2.2,2.2,2.2l2-1.5c0,0,1.5,0,3.5-0.1c1.9,0,3.5,0.1,3.5,0.1v0c0.1,0,0.1,0,0.2,0c3.3,0.1,31.2-50.6,40.2-61.1
		c9-10.5,22.5-83,22.5-83C814.4,356.3,759.9,372.3,745.4,377.3z"/>
	<path fill="#B2AE87" d="M714.2,508.5c9.8,15.8,21.4,35.6,25.9,40.9l25.2-22.5c2.2-3.5,4.4-7.2,6.6-10.8
		C739.9,545,721.4,512.8,714.2,508.5z"/>
	<path fill="#C5C195" d="M745.2,529.6l20.5-3.3c8.9-14.5,18.9-31.2,23.6-36.8c9-10.5,22.5-83,22.5-83c0.8-15.9-4.1-25.2-11.6-30.3
		l-55,3.3V529.6z"/>
	<path fill="#704727" d="M780.1,381.3c0,0,22,12.7,24,18.7l-4.7,0.7c0,0,6,18,9.3,18c3.3,0,10.7-1.3,10-10.7c-0.7-9.3-1.3-14,1.3-16
		s9.3-6.7,9.3-6.7S793.4,378.6,780.1,381.3z"/>
	<path fill="#ECE7E2" d="M697.4,421.5c0,0,1.8,16.9,4.6,19.7s15.7-6.8,28-1.5c0,0,3.7-10.5,4.3-14.5
		C735,421.2,697.4,421.5,697.4,421.5z"/>
	<ellipse fill="#AAA782" cx="716.9" cy="426.9" rx="13.6" ry="7"/>
	<ellipse cx="716.9" cy="426.9" rx="5.9" ry="4.5"/>
	<path fill="#704727" d="M708.4,381.1c0,0-22,12.7-24,18.7l4.7,0.7c0,0-6,18-9.3,18c-3.3,0-10.7-1.3-10-10.7c0.7-9.3,1.3-14-1.3-16
		c-2.7-2-9.3-6.7-9.3-6.7S695.1,378.5,708.4,381.1z"/>
	<path fill="#DCC9B7" d="M692.6,418c0,0,17.3,13,43.7,5.7C736.2,423.6,724.2,394.3,692.6,418z"/>
	<ellipse fill="#EADED4" cx="713.6" cy="414.2" rx="8.2" ry="2.3"/>
	<path fill="none" d="M694.6,421c0,0,1.8,20.3,4.5,22c2.7,1.7,8.8-1.3,9.7-1.7c0.8-0.3,14.7-5.5,21.2-0.7l4.7-15.7"/>
	<path fill="#B6A89F" d="M734.7,424c-0.2,2.6-2.4,8.1-2.4,8.1l-0.1,0c-1,3.3-2.2,6.6-2.6,7.8c-2.7-1.1-5.5-1.6-8.6-1.6
		c-5.2,0-10,1.4-13.8,2.6c-3.6,1.1-6.4,1.8-7.3,0.9c-1.4-1.4-2.6-6.5-3.5-11.6l-0.1,0l-2.3-9.9l0.1,0.5c0.1,0.8,2.1,18.5,5.1,21.6
		c0.5,0.5,1.2,0.7,2.1,0.7c1.5,0,3.6-0.6,6.2-1.4c3.8-1.1,8.5-2.6,13.5-2.6c3.2,0,6,0.6,8.7,1.7l0.5,0.2l0.2-0.5
		c0.2-0.5,4-11.4,4.7-15.8C735.1,424.8,735.1,424.4,734.7,424z"/>
	<path fill="#B6A89F" d="M736.7,423.4c-0.1-0.2-6.4-15.2-21.5-15.2c-6.9,0-14.6,3.1-22.9,9.3l-0.5,0.4l0.5,0.4
		c0.1,0,3.4,2.5,9.3,4.7c0,0-7-4.4-8.1-5.1c7.9-5.8,15.2-8.7,21.8-8.7c12.9,0,19.1,11.5,20.4,14.1c-4.2,1.1-12.6,3-12.6,3
		c4.4-0.2,8.9-0.9,13.4-2.2l0.5-0.2L736.7,423.4z"/>
	<path fill="#ECE7E2" d="M792.1,421.5c0,0-1.8,16.9-4.6,19.7s-15.7-6.8-28-1.5c0,0-3.7-10.5-4.3-14.5
		C754.5,421.2,792.1,421.5,792.1,421.5z"/>
	<ellipse fill="#AAA782" cx="772.7" cy="426.9" rx="13.6" ry="7"/>
	<ellipse cx="772.7" cy="426.9" rx="5.9" ry="4.5"/>
	<path fill="#DCC9B7" d="M796.9,418c0,0-17.3,13-43.7,5.7C753.3,423.6,765.3,394.3,796.9,418z"/>
	<g>
		<path fill="#5C4639" d="M738.1,640.8v-78.5h3.8c-5.1-4.1-13.9-10.4-18.4-9.4l-21.4,76.7c0,0,7.8,6.9,14.7,12.3
			c-2.8,3.9-5.9,8.4-5.9,8.4l0.9,4.9l0.5,1.7c0,0-8.8,9.3-4.3,13c5.8,4.8,15,1.9,20.5-3.8c9.5-9.8,17.9-24.4,17.9-24.4
			c0,0,0-0.1,0-0.1L738.1,640.8z"/>
		<path fill="#5C4639" d="M746.8,641.6l-0.1,0c0,0,0,0.1,0,0.1l0.2,0.1V641.6z"/>
	</g>
	<ellipse fill="#EADED4" cx="775.6" cy="413.5" rx="8.2" ry="2.3"/>
	<path fill="#B6A89F" d="M754.8,424c0.2,2.6,2.4,8.1,2.4,8.1l0.1,0c1,3.3,2.2,6.6,2.6,7.8c2.7-1.1,5.5-1.6,8.6-1.6
		c5.2,0,10,1.4,13.8,2.6c3.6,1.1,6.4,1.8,7.3,0.9c1.4-1.4,2.6-6.5,3.5-11.6l0.1,0l2.3-9.9l-0.1,0.5c-0.1,0.8-2.1,18.5-5.1,21.6
		c-0.5,0.5-1.2,0.7-2.1,0.7c-1.5,0-3.6-0.6-6.2-1.4c-3.8-1.1-8.5-2.6-13.5-2.6c-3.2,0-6,0.6-8.7,1.7l-0.5,0.2l-0.2-0.5
		c-0.2-0.5-4-11.4-4.7-15.8C754.4,424.8,754.4,424.4,754.8,424z"/>
	<path fill="#B6A89F" d="M752.8,423.4c0.1-0.2,6.4-15.2,21.5-15.2c6.9,0,14.6,3.1,22.9,9.3l0.5,0.4l-0.5,0.4c-0.1,0-3.4,2.5-9.3,4.7
		c0,0,7-4.4,8.1-5.1c-7.9-5.8-15.2-8.7-21.8-8.7c-12.9,0-19.1,11.5-20.4,14.1c4.2,1.1,12.6,3,12.6,3c-4.4-0.2-8.9-0.9-13.4-2.2
		l-0.5-0.2L752.8,423.4z"/>
	<g>
		<path fill="#704727" d="M692.8,403.5c0,0,30.2-4.1,44.1,6.6l2.3-9.4C739.2,400.6,706.7,393.2,692.8,403.5z"/>
		<path fill="#704727" d="M737.3,411.5l2.5-10.7l0.9-1C740.7,399.8,739.9,408,737.3,411.5z"/>
		<path fill="#704727" d="M739.5,409.7l2-8.7l0.8-0.8C742.3,400.2,741.6,406.9,739.5,409.7z"/>
	</g>
	<g>
		<path fill="#704727" d="M797.8,400.9c0,0-30.4-2.2-43.5,9.4l-2.9-9.2C751.4,401.1,783.3,391.5,797.8,400.9z"/>
		<path fill="#704727" d="M753.9,411.8l-3.2-10.5l-1-0.9C749.7,400.4,751.1,408.5,753.9,411.8z"/>
		<path fill="#704727" d="M751.6,410.1l-2.6-8.6l-0.8-0.7C748.2,400.8,749.4,407.4,751.6,410.1z"/>
	</g>
	<path fill="#B1817F" d="M754.7,502.6c-0.5,0.7-1.6,0.8-2.4,0.4c-3.4-1.7-7.5-1.7-11,0c-0.8,0.4-1.9,0.3-2.4-0.4l0,0
		c-0.5-0.7-0.1-1.9,1-2.5c4.4-2.2,9.5-2.2,13.9,0C754.9,500.6,755.3,501.8,754.7,502.6L754.7,502.6z"/>
	<path fill="#E1A29F" d="M741.6,428.6l-7.7,52c0,0,5.5,5.2,10.9,5v-59.4C743.9,425.4,742.1,424.6,741.6,428.6z"/>
	<path fill="#C08B89" d="M756.9,480.6l-7.7-52c-0.6-4.9-3.2-2.6-3.8-1.8c-0.1-0.1-0.3-0.3-0.6-0.5v59.4c0.2,0,0.4,0,0.6,0
		C751,486.2,756.9,480.6,756.9,480.6z"/>
	<path fill="#636250" d="M722.5,710c2.3-0.2,10.8-8.5,10.8-8.5c0.2,0,0.3,0,0.5,0c-0.5-1.7-1-3.6-1-3.6s-10.4-1.2-12.4-1.2l-9.5,9.5
		C712.8,711.5,720.2,710.1,722.5,710z"/>
	<path fill="#38362B" d="M712.4,713.3c4,0.2,11.2-0.3,11.2-0.3s11-8.2,11-8.7c0-0.2-0.3-1.5-0.7-2.8c-0.2,0-0.3,0-0.5,0
		c0,0-8.5,8.3-10.8,8.5c-2.3,0.2-9.8,1.5-11.6-3.8C710.9,706.1,708.4,713.1,712.4,713.3z"/>
	<path fill="#422A1D" d="M730.1,564.3c0,0-0.5,57.3-26.8,66.7c-20.4,7.2,6,33.1,7.3,26.7c4-19,16.3-8.4,16.3-8.4s12-57.3,11.2-84.6
		L730.1,564.3z"/>
	<path fill="#38362B" d="M780.8,713.3c-4,0.2-11.2-0.3-11.2-0.3s-11-8.2-11-8.7c0-0.2,0.3-1.5,0.7-2.8c0.2,0,0.3,0,0.5,0
		c0,0,8.5,8.3,10.8,8.5c2.3,0.2,9.8,1.5,11.6-3.8C782.3,706.1,784.8,713.1,780.8,713.3z"/>
	<path fill="#7B4E2D" d="M739,348.7c-9.4-15.1-56.7-37.2-76.2-19.6c-17.9,16.1,4.9,38,27.8,39.9c-12.1,3-14.2,14.7-1.3,17.5
		c12.6,2.8,23.5-3.3,35.6-2.8c9.2,0.4,23.7,8.5,32.1,4.7c5.5-2.5,6.5-8.2,13.1-10.2c4.9-1.5,14.3-1.2,19.3-0.3
		c10.3,2,20.1,6.5,25.1-3.8c4.8-10-3.6-19.2-17.1-21.6c-7-1.2-15.4-0.3-22.1,1.3c-4.6,1.1-9.1,4.8-13.5,5.5
		c-9.1,1.4-19.9-5.2-22.1-11.7"/>
	<path fill="#8FC764" d="M745.7,566.6C745.7,566.6,745.7,566.6,745.7,566.6c-0.3-0.4-1.7-1.7-3.8-3.3h-3.8v79.3h0.9
		c3.4-2.6,6.3-5,6.8-5.4c0,0-0.1-0.1-0.1-0.1V566.6z M749.7,563.3c-2.1,1.7-3.6,3-3.9,3.3c0,0,0.1,0.1,0.1,0.1v70.6c0,0,0,0-0.1,0.1
		c0.5,0.4,3.4,2.8,6.8,5.4h0.9v-79.3H749.7z"/>
	<path fill="#759247" d="M741.1,564l-0.1-9c-0.4-0.1-0.8-0.2-1.3-0.3c0,0-8,3.4-10.5,9.3C732,565.2,737.1,564.5,741.1,564z"/>
	<path fill="#BFC8A6" d="M709.1,661.1L709.1,661.1c-1.9,3-3.5,6.7-1,8.8c5.8,4.8,15,1.9,20.5-3.8c9.1-9.3,17.2-23.2,17.9-24.3
		c0-0.1,0-0.1,0-0.2l-0.9,0.5C745.6,642.1,715.3,675.1,709.1,661.1z"/>
	<g>
		<path fill="#5C4639" d="M753.6,640.8v-78.5h-3.8c5.1-4.1,13.9-10.4,18.4-9.4l21.4,76.7c0,0-7.7,6.9-14.7,12.3
			c2.8,3.9,5.9,8.4,5.9,8.4l-0.9,4.9l-0.5,1.7c0,0,8.8,9.3,4.3,13c-5.8,4.8-15,1.9-20.5-3.8c-9.5-9.8-17.9-24.4-17.9-24.4
			c0,0,0-0.1,0-0.1L753.6,640.8z"/>
		<path fill="#5C4639" d="M744.9,641.6l0.1,0c0,0,0,0.1,0,0.1l-0.2,0.1V641.6z"/>
	</g>
	<path fill="#759247" d="M747.4,564l0.1-9c0.4-0.1,0.8-0.2,1.3-0.3c0,0,8,3.4,10.5,9.3C756.5,565.2,751.5,564.5,747.4,564z"/>
	<path fill="#BFC8A6" d="M782.6,661.1L782.6,661.1c1.9,3,3.5,6.7,1,8.8c-5.8,4.8-15,1.9-20.5-3.8c-9.1-9.3-17.2-23.2-17.9-24.3
		c0-0.1,0-0.1,0-0.2l0.9,0.5C746.1,642.1,776.4,675.1,782.6,661.1z"/>
	<path fill="#422A1D" d="M759.6,564.3c0,0,0.5,57.3,26.8,66.7c20.4,7.2-6,33.1-7.3,26.7c-4-19-16.3-8.4-16.3-8.4s-12-57.3-11.2-84.6
		L759.6,564.3z"/>
	<path fill="#759247" d="M735.6,566.1c2.4-0.2,2.4,10,2.5,11.8c0.2,4.3-1,7.8-1.9,11.8c-0.7,2.8-1.3,5.3-2.5,7.9
		c-0.7,1.5-3.1,5.4-2.3,7c1.6,3.4,5.1-2.1,6.3-3.3c2.3-2.2,4.6-3,7.7-3c3.1,0,5.4,0.6,7.8,2.5c1.6,1.2,3.2,3.2,5.2,2.2
		c5.4-2.7,0.3-11.7-0.7-15.4c-1.4-5.5-3-10.4-3.3-16.1c-0.2-4.1-0.1-8.8-5.1-5.8c-1.6,1-3.1,2.3-5.2,2.1c-2.5-0.2-3.5-2.5-5.5-3.6
		c-1.2-0.6-2.6-1.3-3.3,0.3c-0.6,1.6,1.3,2.8,2,4"/>
	<path fill="#A5B484" d="M757.6,587.7c-1.4-5.5-3-10.4-3.3-16.1c-0.1-2.3-0.1-4.8-1-6c-0.1,0-0.2,0-0.3,0c-4,0.3-1.6,8.4-2.9,11
		c-2,3.9-2.9-0.5-4.8,0.2c-1.5,0.6,0,5,0.3,6c1.7,5.2,2.6,10.9,0.2,15.5l0,0c0.1,0,0.2,0,0.3,0c0.6-0.4,1.2-0.2,1.9,0.2
		c1.8,0.3,3.4,1,5.1,2.3c1.6,1.2,3.2,3.2,5.2,2.2C763.7,600.3,758.6,591.4,757.6,587.7z"/>
	<path fill="#8CA265" d="M745.7,549c-0.7,0-1.2,0.3-1.4,0.8c-0.3-0.5-0.7-0.8-1.4-0.8c-1.5,0-4.8,0.5-4.8,2.3l2,15.2
		c0,1.8,1.2,3.3,2.8,3.3c0.7,0,1.1,0.3,1.3,0.5c0,0.1,0.1,0.2,0.2,0.1c0.1,0,0.1,0,0.2-0.1c0.2-0.2,0.6-0.5,1.3-0.5
		c1.5,0,2.8-1.5,2.8-3.3l2-15.2C750.5,549.5,747.2,549,745.7,549z"/>
</g>
<g>
	<path fill="#9F1D20" d="M985.7,533.1c-6.6-4.1-16,8.6-17.5,14c-2.5,8.9-3.7,18.3-5.5,27.4c-5.5,27-13.1,55.4-25.4,80.1
		c-3.2,6.5-10,20.4,3.8,16.6c4.4-1.2,7.4-4.6,12-4.6c5.8-0.1,6,4.6,10.5,5.9c3.7,1.1,10.5-1.4,14.6-1.4c4.7-0.1,9.7-0.4,14.4,0
		c3.4,0.3,8.4,3.3,11,0c2.8-3.7,1.1-16.2,1-20.6c-0.5-16.1-3.4-32.1-4-48.3c-0.5-12.3,1.5-24.3,2-36.5c0.3-6.9,2.3-16.6-0.9-22.8
		c-4.1-7.9-10.4-5.9-17.5-7.9c-0.1-0.7-0.2-1.7-0.1-2.4"/>
	<path fill="#9F1D20" d="M1019,533.1c6.6-4.1,16,8.6,17.5,14c2.5,8.9,3.7,18.3,5.5,27.4c5.5,27,13.1,55.4,25.4,80.1
		c3.2,6.5,10,20.4-3.8,16.6c-4.4-1.2-7.4-4.6-12-4.6c-5.8-0.1-6,4.6-10.5,5.9c-3.7,1.1-10.5-1.4-14.6-1.4c-4.7-0.1-9.7-0.4-14.4,0
		c-3.4,0.3-8.4,3.3-11,0c-2.8-3.7-1.1-16.2-1-20.6c0.5-16.1,3.4-32.1,4-48.3c0.5-12.3-1.5-24.3-2-36.5c-0.3-6.9-2.3-16.6,0.9-22.8
		c4.1-7.9,10.4-5.9,17.5-7.9c0.1-0.7,0.2-1.7,0.1-2.4"/>
	<path fill="#D1CFC5" d="M983.1,536.2c0,0,2.8-3.5,5.8-1.7l7.6,16.2C996.5,550.8,982.4,539.6,983.1,536.2z"/>
	<path fill="#D1CFC5" d="M1021.8,536.2c0,0-2.8-3.5-5.8-1.7l-7.6,16.2C1008.4,550.8,1022.5,539.6,1021.8,536.2z"/>
	<path fill="#DED8A6" d="M1003.6,377.3c-14.4-5.1-69-21.1-66.4,29.3c0,0,13.5,72.5,22.5,83c9,10.5,33,60.6,36.3,60.5
		c0.1,0,2.1,2.2,2.2,2.2l1.4,10.8c0,0,4.9,0,6.9,0l0.6-11.1l1.3-1.3c0.1,0-0.9,0.2-0.8,0.1c2.9-1,30.9-50.8,39.9-61.3
		c9-10.5,22.5-83,22.5-83C1072.6,356.3,1018,372.3,1003.6,377.3z"/>
	<ellipse transform="matrix(0.963 -0.2694 0.2694 0.963 -82.0886 268.1931)" fill="#DED8A6" cx="936" cy="433.1" rx="7.7" ry="15"/>
	
		<ellipse transform="matrix(-0.963 -0.2694 0.2694 -0.963 1984.1877 1138.6193)" fill="#C4BF94" cx="1070.2" cy="433.1" rx="7.7" ry="15"/>
	<path fill="#F15A29" d="M1004.8,643.3V661l-10,3.3l-0.7,13.7l-19.7,3l-5.3-29.7c0,0,9-13.3,10.3-13.7
		C980.8,637.3,1004.4,637,1004.8,643.3z"/>
	<path fill="#F15A29" d="M1004.6,643.3V661l10,3.3l0.7,13.7l19.7,3l5.3-29.7c0,0-9-13.3-10.3-13.7
		C1028.6,637.3,1005,637,1004.6,643.3z"/>
	<polygon fill="#B59248" points="1035.8,683.5 1014.3,680.6 1014.1,677.6 1015.3,678 1035,681 	"/>
	<polygon fill="#DCD6A5" points="1033.8,683.1 1030.4,697.8 1018.4,697.9 1015.4,680.5 	"/>
	<path fill="#636250" d="M1030.8,696.6l9.5,9.5c0,0,2.5,7-1.5,7.2c-4,0.2-11.2-0.3-11.2-0.3s-11-8.2-11-8.7s1.8-6.4,1.8-6.4
		S1028.8,696.6,1030.8,696.6z"/>
	<path fill="#DCDCD3" d="M996.3,563.3h3.8c-5.1-4.1-13.9-10.4-18.4-9.4l-21.4,76.7c0,0,20.5,18.3,24.8,18.7
		c2.3,0.2,7.7-3.3,12.1-6.6h-0.9V563.3z"/>
	<path fill="#DCDCD3" d="M1011.6,642.6h-0.9c4.4,3.3,9.7,6.8,12.1,6.6c4.3-0.3,24.8-18.7,24.8-18.7l-21.4-76.7
		c-4.5-0.9-13.2,5.3-18.4,9.4h3.8V642.6z"/>
	<path fill="#9B5743" d="M1004,637.3c-0.5,0.4-3.4,2.8-6.8,5.4h13.6C1007.3,640.1,1004.4,637.7,1004,637.3z"/>
	<path fill="#D0D0C8" d="M1007.9,563.3h-7.8h-3.8v79.3h0.9c3.4-2.6,6.3-5,6.8-5.4c0,0-0.1-0.1-0.1-0.1v-70.6c0,0,0,0,0.1-0.1
		c0,0,0.1,0.1,0.1,0.1v70.6c0,0,0,0-0.1,0.1c0.5,0.4,3.4,2.8,6.8,5.4h0.9v-79.3H1007.9z"/>
	<path fill="#DCDCD3" d="M1004,566.6C1004,566.6,1004,566.6,1004,566.6c-0.1,0-0.2,0-0.2,0v70.6c0,0,0,0,0.1,0.1
		c0,0,0.1-0.1,0.1-0.1V566.6z"/>
	<path fill="#E9E8DE" d="M983.1,536.2c0,0-9.2,10.9-9,15.7c0.3,8.1,5.5,15,25.2,12.1l-0.2-11.1C999.2,552.9,982,538.5,983.1,536.2z"
		/>
	<path fill="#DCDCD3" d="M999.3,564l-0.1-9c-0.4-0.1-0.8-0.2-1.3-0.3c0,0-8,3.4-10.5,9.3C990.2,565.2,995.2,564.5,999.3,564z"/>
	<path fill="#E9E8DE" d="M1021.8,536.2c0,0,9.2,10.9,9,15.7c-0.3,8.1-5.5,15-25.2,12.1l0.2-11.1
		C1005.8,552.9,1022.9,538.5,1021.8,536.2z"/>
	<path fill="#DCDCD3" d="M1005.6,564l0.1-9c0.4-0.1,0.8-0.2,1.3-0.3c0,0,8,3.4,10.5,9.3C1014.7,565.2,1009.7,564.5,1005.6,564z"/>
	<polygon fill="#B59248" points="973.6,683.5 995.1,680.6 995.3,677.6 994.1,678 974.4,681 	"/>
	<polygon fill="#DCD6A5" points="975.6,683.1 979,697.8 991,697.9 994,680.5 	"/>
	<g>
		<g>
			<path fill="#714C3D" d="M1032.2,645.1c-43.3-39-56.6-80.6-56.9-82.9c0,0,0.4-3.9,1-3.3c3,3.7,8.8,4.7,8.8,4.7
				c0.1,0.5,3.9,32.5,59,82.8l-3.8,4.9L1032.2,645.1z"/>
		</g>
	</g>
	<path fill="#E9E8DE" d="M976.4,571c0,0-10.3,14-15.3,15.7c0,0,3.7,11.3-2,20c0,0,7.3-4,10-7C971.8,596.6,976.4,574.6,976.4,571z"/>
	<path fill="#DCDCD3" d="M965.8,583.2c-1.8,1.7-3.4,2.9-4.7,3.4c0,0,3.7,11.3-2,20c0,0,4-2.2,7.1-4.5c3.9-12.7-0.2-18.7-0.2-18.7
		L965.8,583.2z"/>
	<path fill="#C2BE93" d="M944.1,600.8l-0.6-11c-0.3-5.3,2.9-9.9,7.6-11.7c-0.6-0.1-1.3-0.1-2-0.1c-6.5,0.3-11.5,5.9-11.2,12.4
		l0.6,11c0.3,6.5,5.9,11.5,12.4,11.2c1.3-0.1,2.5-0.3,3.6-0.8C949,611.2,944.5,606.6,944.1,600.8z"/>
	<path fill="#51413C" d="M954.2,644c0.1,2.7-1.2,4.8-2.9,4.9l0,0c-1.7,0-3-2.1-3.1-4.7L945,494.3c-0.1-2.7,1.2-4.8,2.9-4.9l0,0
		c1.7,0,3,2.1,3.1,4.7L954.2,644z"/>
	<path fill="#C4BF94" d="M972.4,508.5c9.8,15.8,21.4,35.6,25.9,40.9l25.2-22.5c2.2-3.5,4.4-7.2,6.6-10.8
		C998.1,545,979.6,512.8,972.4,508.5z"/>
	<path fill="#C5C195" d="M1003.4,529.6l20.5-3.3c8.9-14.5,18.9-31.2,23.6-36.8c9-10.5,22.5-83,22.5-83c0.8-15.9-4.1-25.2-11.6-30.3
		l-55,3.3V529.6z"/>
	<path fill="#704727" d="M1038.3,381.3c0,0,22,12.7,24,18.7l-4.7,0.7c0,0,6,18,9.3,18c3.3,0,10.7-1.3,10-10.7
		c-0.7-9.3-1.3-14,1.3-16s9.3-6.7,9.3-6.7S1051.6,378.6,1038.3,381.3z"/>
	<path fill="#414042" d="M905.7,374.3c0,0,35.6-91.9,145.8-65.4c0,0,13.4,1.7,18.5,8.6c5.1,6.9,14,7.5,14,7.5s-0.9,22.2,2,36.7
		c2.8,14.5,16.5,50.1,1.6,48.5c-14.9-1.5-2-52.9-140.9-23.6c0,0-44.4,13.8-51.1-1.8C895.6,384.8,892.7,369.6,905.7,374.3z"/>
	<path fill="#ECE7E2" d="M955.6,421.5c0,0,1.8,16.9,4.6,19.7s15.7-6.8,28-1.5c0,0,3.7-10.5,4.3-14.5
		C993.2,421.2,955.6,421.5,955.6,421.5z"/>
	<ellipse fill="#AAA782" cx="975" cy="426.9" rx="13.6" ry="7"/>
	<ellipse cx="975" cy="426.9" rx="5.9" ry="4.5"/>
	<path fill="#704727" d="M966.6,381.1c0,0-22,12.7-24,18.7l4.7,0.7c0,0-6,18-9.3,18s-10.7-1.3-10-10.7c0.7-9.3,1.3-14-1.3-16
		c-2.7-2-9.3-6.7-9.3-6.7S953.3,378.5,966.6,381.1z"/>
	<path fill="#DCC9B7" d="M950.8,418c0,0,17.3,13,43.7,5.7C994.4,423.6,982.4,394.3,950.8,418z"/>
	<ellipse fill="#EADED4" cx="971.8" cy="414.2" rx="8.2" ry="2.3"/>
	<path fill="#704727" d="M996.8,471.2c0,0-4.3-0.6-10,7.8c-2.7,4-14.9,10.8-18.4,6.3c0,0,2,7.8,11,6.7c5.9-0.7,18.2-3.1,24-12.9
		C1003.5,479.2,999.9,471,996.8,471.2z"/>
	<path fill="#704727" d="M1009.6,471.2c0,0,4.3-0.6,10,7.8c2.7,4,14.9,10.8,18.4,6.3c0,0-2,7.8-11,6.7c-5.9-0.7-18.2-3.1-24-12.9
		C1002.9,479.2,1006.5,471,1009.6,471.2z"/>
	<path fill="none" d="M952.8,421c0,0,1.8,20.3,4.5,22c2.7,1.7,8.8-1.3,9.7-1.7c0.8-0.3,14.7-5.5,21.2-0.7l4.7-15.7"/>
	<path fill="#B6A89F" d="M992.9,424c-0.2,2.6-2.4,8.1-2.4,8.1l-0.1,0c-1,3.3-2.2,6.6-2.6,7.8c-2.7-1.1-5.5-1.6-8.6-1.6
		c-5.2,0-10,1.4-13.8,2.6c-3.6,1.1-6.4,1.8-7.3,0.9c-1.4-1.4-2.6-6.5-3.5-11.6l-0.1,0l-2.3-9.9l0.1,0.5c0.1,0.8,2.1,18.5,5.1,21.6
		c0.5,0.5,1.2,0.7,2.1,0.7c1.5,0,3.6-0.6,6.2-1.4c3.8-1.1,8.5-2.6,13.5-2.6c3.2,0,6,0.6,8.7,1.7l0.5,0.2l0.2-0.5
		c0.2-0.5,4-11.4,4.7-15.8C993.3,424.8,993.3,424.4,992.9,424z"/>
	<path fill="#B6A89F" d="M994.9,423.4c-0.1-0.2-6.4-15.2-21.5-15.2c-6.9,0-14.6,3.1-22.9,9.3l-0.5,0.4l0.5,0.4
		c0.1,0,3.4,2.5,9.3,4.7c0,0-7-4.4-8.1-5.1c7.9-5.8,15.2-8.7,21.8-8.7c12.9,0,19.1,11.5,20.4,14.1c-4.2,1.1-12.6,3-12.6,3
		c4.4-0.2,8.9-0.9,13.4-2.2l0.5-0.2L994.9,423.4z"/>
	<path fill="#ECE7E2" d="M1050.2,421.5c0,0-1.8,16.9-4.6,19.7s-15.7-6.8-28-1.5c0,0-3.7-10.5-4.3-14.5
		C1012.7,421.2,1050.2,421.5,1050.2,421.5z"/>
	<ellipse fill="#AAA782" cx="1030.8" cy="426.9" rx="13.6" ry="7"/>
	<ellipse cx="1030.8" cy="426.9" rx="5.9" ry="4.5"/>
	<path fill="#DCC9B7" d="M1055.1,418c0,0-17.3,13-43.7,5.7C1011.5,423.6,1023.5,394.3,1055.1,418z"/>
	<ellipse fill="#EADED4" cx="1033.8" cy="413.5" rx="8.2" ry="2.3"/>
	<path fill="#B6A89F" d="M1013,424c0.2,2.6,2.4,8.1,2.4,8.1l0.1,0c1,3.3,2.2,6.6,2.6,7.8c2.7-1.1,5.5-1.6,8.6-1.6
		c5.2,0,10,1.4,13.8,2.6c3.6,1.1,6.4,1.8,7.3,0.9c1.4-1.4,2.6-6.5,3.5-11.6l0.1,0l2.3-9.9l-0.1,0.5c-0.1,0.8-2.1,18.5-5.1,21.6
		c-0.5,0.5-1.2,0.7-2.1,0.7c-1.5,0-3.6-0.6-6.2-1.4c-3.8-1.1-8.5-2.6-13.5-2.6c-3.2,0-6,0.6-8.7,1.7l-0.5,0.2l-0.2-0.5
		c-0.2-0.5-4-11.4-4.7-15.8C1012.6,424.8,1012.6,424.4,1013,424z"/>
	<path fill="#B6A89F" d="M1011,423.4c0.1-0.2,6.4-15.2,21.5-15.2c6.9,0,14.6,3.1,22.9,9.3l0.5,0.4l-0.5,0.4c-0.1,0-3.4,2.5-9.3,4.7
		c0,0,7-4.4,8.1-5.1c-7.9-5.8-15.2-8.7-21.8-8.7c-12.9,0-19.1,11.5-20.4,14.1c4.2,1.1,12.6,3,12.6,3c-4.4-0.2-8.9-0.9-13.4-2.2
		l-0.5-0.2L1011,423.4z"/>
	<g>
		<path fill="#704727" d="M951,403.5c0,0,30.2-4.1,44.1,6.6l2.3-9.4C997.4,400.6,964.9,393.2,951,403.5z"/>
		<path fill="#704727" d="M995.5,411.5l2.5-10.7l0.9-1C998.9,399.8,998.1,408,995.5,411.5z"/>
		<path fill="#704727" d="M997.7,409.7l2-8.7l0.8-0.8C1000.5,400.2,999.8,406.9,997.7,409.7z"/>
	</g>
	<g>
		<path fill="#704727" d="M1056,400.9c0,0-30.4-2.2-43.5,9.4l-2.9-9.2C1009.6,401.1,1041.5,391.5,1056,400.9z"/>
		<path fill="#704727" d="M1012.1,411.8l-3.2-10.5l-1-0.9C1007.9,400.4,1009.3,408.5,1012.1,411.8z"/>
		<path fill="#704727" d="M1009.8,410.1l-2.6-8.6l-0.8-0.7C1006.4,400.8,1007.6,407.4,1009.8,410.1z"/>
	</g>
	<path fill="#4A4B4C" d="M1092,385.4c-2.1-8.8-4.9-17.9-6.1-23.7c-0.2-1-0.4-2-0.5-3.1c-20.9-5.5-80.9-16.9-150.3,8.1
		c0,0-15.2,6.2-28,4.3c-1,2.1-1.4,3.3-1.4,3.3c-1-0.4-1.9-0.6-2.7-0.7c3.6,2.5,9.4,4.4,18.8,3.1C941.3,373.8,1047,340.5,1092,385.4z
		"/>
	<path fill="#E9E8DE" d="M1031.1,571c0,0,10.3,14,15.3,15.7c0,0-3.7,11.3,2,20c0,0-7.3-4-10-7C1035.7,596.6,1031.1,574.6,1031.1,571
		z"/>
	<path fill="#DCDCD3" d="M1041.7,583.2c1.8,1.7,3.4,2.9,4.7,3.4c0,0-3.7,11.3,2,20c0,0-4-2.2-7.1-4.5c-3.9-12.7,0.2-18.7,0.2-18.7
		L1041.7,583.2z"/>
	<path fill="#C2BE93" d="M1063.4,600.8l0.6-11c0.3-5.3-2.9-9.9-7.6-11.7c0.6-0.1,1.3-0.1,2-0.1c6.5,0.3,11.5,5.9,11.2,12.4l-0.6,11
		c-0.3,6.5-5.9,11.5-12.4,11.2c-1.3-0.1-2.5-0.3-3.6-0.8C1058.5,611.2,1063,606.6,1063.4,600.8z"/>
	<path fill="#DCD6A5" d="M1045.3,600.2l0.6-11c0.3-5.9,4.8-10.5,10.5-11.1c4.7,1.8,7.9,6.4,7.6,11.7l-0.6,11
		c-0.3,5.9-4.8,10.5-10.5,11.1C1048.2,610.1,1045,605.5,1045.3,600.2z"/>
	<path fill="#C2BE93" d="M1048,584.6c-0.1,0.5,0,0.9,0.4,1l5.3,1.7c0.4,0.1,0.8-0.2,0.9-0.6l0,0c0.1-0.5,0-0.9-0.4-1l-5.3-1.7
		C1048.6,583.9,1048.2,584.2,1048,584.6L1048,584.6z"/>
	<path fill="#C2BE93" d="M1046.7,592.6c-0.1,0.5,0,0.9,0.4,1l5.3,1.7c0.4,0.1,0.8-0.2,0.9-0.6l0,0c0.1-0.5,0.2-0.3-0.1-0.4l-5.6-2.3
		C1047.3,591.9,1046.8,592.1,1046.7,592.6L1046.7,592.6z"/>
	<path fill="#C2BE93" d="M1046.9,601.3c-0.1,0.5,0,0.9,0.4,1l5.3,1.7c0.4,0.1,0.8-0.2,0.9-0.6l0,0c0.1-0.5-0.6-0.5-0.9-0.6l-4.8-2.1
		C1047.4,600.6,1047,600.8,1046.9,601.3L1046.9,601.3z"/>
	<path fill="#B1817F" d="M1012.9,502.6c-0.5,0.7-1.6,0.8-2.4,0.4c-3.4-1.7-7.5-1.7-11,0c-0.8,0.4-1.9,0.3-2.4-0.4l0,0
		c-0.5-0.7-0.1-1.9,1-2.5c4.4-2.2,9.5-2.2,13.9,0C1013,500.6,1013.5,501.8,1012.9,502.6L1012.9,502.6z"/>
	<path fill="#E1A29F" d="M999.8,428.6l-7.7,52c0,0,5.5,5.2,10.9,5v-59.4C1002,425.4,1000.3,424.6,999.8,428.6z"/>
	<path fill="#C08B89" d="M1015.1,480.6l-7.7-52c-0.6-4.9-3.2-2.6-3.8-1.8c-0.1-0.1-0.3-0.3-0.6-0.5v59.4c0.2,0,0.4,0,0.6,0
		C1009.2,486.2,1015.1,480.6,1015.1,480.6z"/>
	<path fill="#636250" d="M980.7,710c2.3-0.2,10.8-8.5,10.8-8.5c0.2,0,0.3,0,0.5,0c-0.5-1.7-1-3.6-1-3.6s-10.4-1.2-12.4-1.2l-9.5,9.5
		C970.9,711.5,978.4,710.1,980.7,710z"/>
	<path fill="#38362B" d="M970.6,713.3c4,0.2,11.2-0.3,11.2-0.3s11-8.2,11-8.7c0-0.2-0.3-1.5-0.7-2.8c-0.2,0-0.3,0-0.5,0
		c0,0-8.5,8.3-10.8,8.5c-2.3,0.2-9.8,1.5-11.6-3.8C969.1,706.1,966.6,713.1,970.6,713.3z"/>
	<path fill="#38362B" d="M1039,713.3c-4,0.2-11.2-0.3-11.2-0.3s-11-8.2-11-8.7c0-0.2,0.3-1.5,0.7-2.8c0.2,0,0.3,0,0.5,0
		c0,0,8.5,8.3,10.8,8.5c2.3,0.2,9.8,1.5,11.6-3.8C1040.5,706.1,1043,713.1,1039,713.3z"/>
	<polygon fill="#3D3534" points="951.7,526 958.1,542.3 958.1,582.3 951.9,580.3 	"/>
	<path fill="#DCD6A5" d="M962.2,600.2l-0.6-11c-0.3-5.9-4.8-10.5-10.5-11.1c-4.7,1.8-7.9,6.4-7.6,11.7l0.6,11
		c0.3,5.9,4.8,10.5,10.5,11.1C959.3,610.1,962.5,605.5,962.2,600.2z"/>
	<path fill="#C2BE93" d="M959.5,584.6c0.1,0.5,0,0.9-0.4,1l-5.3,1.7c-0.4,0.1-0.8-0.2-0.9-0.6l0,0c-0.1-0.5,0-0.9,0.4-1l5.3-1.7
		C958.9,583.9,959.3,584.2,959.5,584.6L959.5,584.6z"/>
	<path fill="#C2BE93" d="M960.8,592.6c0.1,0.5,0,0.9-0.4,1l-5.3,1.7c-0.4,0.1-0.8-0.2-0.9-0.6l0,0c-0.1-0.5-0.2-0.3,0.1-0.4l5.6-2.3
		C960.2,591.9,960.7,592.1,960.8,592.6L960.8,592.6z"/>
	<path fill="#C2BE93" d="M960.6,601.3c0.1,0.5,0,0.9-0.4,1l-5.3,1.7c-0.4,0.1-0.8-0.2-0.9-0.6l0,0c-0.1-0.5,0.6-0.5,0.9-0.6l4.8-2.1
		C960.1,600.6,960.5,600.8,960.6,601.3L960.6,601.3z"/>
	<path fill="#3D3534" d="M965.6,633.1l0.4,0.2c2.9-4.6,3.7-8.7,2.4-12.3c-1.6-4.4-6.7-6.4-8.5-7c-0.7-2.9-1.1-4.7-1.1-4.7l-6,1.8
		c0,0,1.3,11.3,1.3,36.3s20.3,29.5,20.3,29.5v-29.5C971,645.4,968,639.6,965.6,633.1z M960.9,618.4c1.2,0.7,2.9,2,3.6,4
		c0.6,1.8,0.4,3.8-0.6,6.2C962.8,625,961.7,621.5,960.9,618.4z"/>
	<path fill="#704727" d="M1047.5,489.6c4.2-5,9.5-23.7,13.9-42.2c-0.4-0.2-0.8-0.4-1.3-0.5v-0.7c-8.1,0.5-9.6,17.2-11.8,22.8
		c-3.4,8.5-10.6,11.8-12.2,21.2c-1.6,9.5-5.5,18.4-12.6,26c-9.1,9.9-12.2,1.6-19.4-4.4c0.1,3.6-1.4,12.8,0.8,15.6
		c0.6,0.7,1.3,1.2,2.2,1.6l16.8-2.7C1032.8,511.8,1042.8,495.2,1047.5,489.6z"/>
	<path fill="#704727" d="M960.5,489.6c-4.2-5-9.5-23.7-13.9-42.2c0.4-0.2,0.8-0.4,1.3-0.5v-0.7c8.1,0.5,9.6,17.2,11.8,22.8
		c3.4,8.5,10.6,11.8,12.2,21.2c1.6,9.5,5.5,18.4,12.6,26c9.1,9.9,12.2,1.6,19.4-4.4c-0.1,3.6,1.4,12.8-0.8,15.6
		c-0.6,0.7-1.3,1.2-2.2,1.6l-16.8-2.7C975.2,511.8,965.2,495.2,960.5,489.6z"/>
	<path fill="#414042" d="M1079.9,331.8c-2.2-0.6-2.7-7.5-3.5-10c-0.8-2.3-1-4.3-1.4-6.7c1,0.4,2.1,1,3,1.6c-1.6-5.8-4.9-11-5.2-18
		c-0.3-6.5,2.3-19,7.4-24.9c0.9,2.4-0.6,7.1,1.7,8.6c3.1-4.7,9.5-10.4,14.9-13.9c3.4-2.2,9.3-3.3,7.6,1.9c-1.3,4.1-6.4,8.6-9,12.1
		c-4,5.4-6.7,11.9-6.7,17.9c2.5-2.3,5.8-5.6,8.1-2.8c-10,7.4-17.6,23.9-12,31.3c-1,3.1-3.8,3.2-5.2,1.5"/>
</g>
<g>
	<path fill="#BFB858" d="M1203.2,653h-8.4C1198,654.1,1200.9,654.4,1203.2,653z"/>
	<path fill="#BFB858" d="M1203.2,653h1c-0.1-0.2-0.3-0.3-0.4-0.4c-0.1,0.1-0.2,0.2-0.3,0.2C1203.4,652.9,1203.3,652.9,1203.2,653z"
		/>
	<path fill="#E7E3C1" d="M1236.2,536.2c0,0,2.8-3.5,5.8-1.7l7.6,16.2C1249.6,550.8,1235.5,539.6,1236.2,536.2z"/>
	<path fill="#E7E3C1" d="M1274.9,536.2c0,0-2.8-3.5-5.8-1.7l-7.6,16.2C1261.5,550.8,1275.6,539.6,1274.9,536.2z"/>
	<path fill="#DED8A6" d="M1256.7,377.3c-14.4-5.1-69-21.1-66.4,29.3c0,0,13.5,72.5,22.5,83c9,10.5,33,60.6,36.3,60.5
		c0.1,0,2.1,2.2,2.2,2.2l-6.9,12.7c0,0,6.9,18.9,13.5,18.8c5.9,0,11.4-19,12.3-19l-10-12.8l1.3-1.3c0.1,0-0.9,0.2-0.8,0.1
		c2.9-1,30.9-50.8,39.9-61.3c9-10.5,22.5-83,22.5-83C1325.7,356.3,1271.1,372.3,1256.7,377.3z"/>
	
		<ellipse transform="matrix(0.963 -0.2694 0.2694 0.963 -72.7302 336.3793)" fill="#DED8A6" cx="1189.1" cy="433.1" rx="7.7" ry="15"/>
	
		<ellipse transform="matrix(-0.963 -0.2694 0.2694 -0.963 2480.9912 1206.8054)" fill="#C4BF94" cx="1323.3" cy="433.1" rx="7.7" ry="15"/>
	<path fill="#624D45" d="M1257.8,643.3V661l-10,3.3l-0.7,13.7l-19.7,3l-5.3-29.7c0,0,9-13.3,10.3-13.7
		C1233.8,637.3,1257.5,637,1257.8,643.3z"/>
	<path fill="#624D45" d="M1257.7,643.3V661l10,3.3l0.7,13.7l19.7,3l5.3-29.7c0,0-9-13.3-10.3-13.7
		C1281.7,637.3,1258.1,637,1257.7,643.3z"/>
	<polygon fill="#B59248" points="1288.9,683.5 1267.4,680.6 1267.2,677.6 1268.4,678 1288.1,681 	"/>
	<polygon fill="#DCD6A5" points="1286.9,683.1 1283.5,697.8 1271.5,697.9 1268.5,680.5 	"/>
	<path fill="#636250" d="M1283.9,696.6l9.5,9.5c0,0,2.5,7-1.5,7.2c-4,0.2-11.2-0.3-11.2-0.3s-11-8.2-11-8.7s1.8-6.4,1.8-6.4
		S1281.9,696.6,1283.9,696.6z"/>
	<path fill="#9B5743" d="M1257,637.3c-0.5,0.4-3.4,2.8-6.8,5.4h13.6C1260.4,640.1,1257.5,637.7,1257,637.3z"/>
	<path fill="#FFFCD5" d="M1279.3,553.9c-4.5-0.9-16.6,24.7-21.8,28.8l0,0c-5.1-4.1-18.3-29.7-22.8-28.8l-21.4,76.7
		c0,0,20.5,18.3,24.8,18.7c2.3,0.2,7.7-3.3,12.1-6.6c3.4-2.6,6.3-5,6.8-5.4c0,0-0.1-0.1-0.1-0.1h0.2c0,0,0,0-0.1,0.1
		c0.5,0.4,3.4,2.8,6.8,5.4c4.4,3.3,9.7,6.8,12.1,6.6c4.3-0.3,24.8-18.7,24.8-18.7L1279.3,553.9z"/>
	<path fill="#DCDCD3" d="M1257.1,566.6C1257.1,566.6,1257.1,566.6,1257.1,566.6c-0.1,0-0.2,0-0.2,0v70.6c0,0,0,0,0.1,0.1
		c0,0,0.1-0.1,0.1-0.1V566.6z"/>
	<path fill="#FFFCD5" d="M1236.2,536.2c0,0-9.2,10.9-9,15.7c0.3,8.1,5.5,15,25.2,12.1l-0.2-11.1
		C1252.2,552.9,1235.1,538.5,1236.2,536.2z"/>
	<path fill="#FFFCD5" d="M1274.9,536.2c0,0,9.2,10.9,9,15.7c-0.3,8.1-5.5,15-25.2,12.1l0.2-11.1
		C1258.8,552.9,1276,538.5,1274.9,536.2z"/>
	<polygon fill="#B59248" points="1226.7,683.5 1248.2,680.6 1248.3,677.6 1247.2,678 1227.5,681 	"/>
	<polygon fill="#DCD6A5" points="1228.7,683.1 1232.1,697.8 1244.1,697.9 1247.1,680.5 	"/>
	<path fill="#F2EDC9" d="M1229.5,571c0,0-10.3,14-15.3,15.7c0,0,3.7,11.3-2,20c0,0,7.3-4,10-7C1224.8,596.6,1229.5,574.6,1229.5,571
		z"/>
	<path fill="#DCD6A5" d="M1218.9,583.2c-1.8,1.7-3.4,2.9-4.7,3.4c0,0,3.7,11.3-2,20c0,0,4-2.2,7.1-4.5c3.9-12.7-0.2-18.7-0.2-18.7
		L1218.9,583.2z"/>
	<path fill="#C4BF94" d="M1225.5,508.5c9.8,15.8,21.4,35.6,25.9,40.9l25.2-22.5c2.2-3.5,4.4-7.2,6.6-10.8
		C1251.1,545,1232.7,512.8,1225.5,508.5z"/>
	<path fill="#C5C195" d="M1256.5,529.6l20.5-3.3c8.9-14.5,18.9-31.2,23.6-36.8c9-10.5,22.5-83,22.5-83c0.8-15.9-4.1-25.2-11.6-30.3
		l-55,3.3V529.6z"/>
	<path fill="#704727" d="M1291.3,381.3c0,0,22,12.7,24,18.7l-4.7,0.7c0,0,6,18,9.3,18c3.3,0,10.7-1.3,10-10.7
		c-0.7-9.3-1.3-14,1.3-16s9.3-6.7,9.3-6.7S1304.7,378.6,1291.3,381.3z"/>
	<path fill="#ECE7E2" d="M1208.7,421.5c0,0,1.8,16.9,4.6,19.7s15.7-6.8,28-1.5c0,0,3.7-10.5,4.3-14.5
		C1246.3,421.2,1208.7,421.5,1208.7,421.5z"/>
	<ellipse fill="#AAA782" cx="1228.1" cy="426.9" rx="13.6" ry="7"/>
	<ellipse cx="1228.1" cy="426.9" rx="5.9" ry="4.5"/>
	<path fill="#704727" d="M1219.7,381.1c0,0-22,12.7-24,18.7l4.7,0.7c0,0-6,18-9.3,18s-10.7-1.3-10-10.7c0.7-9.3,1.3-14-1.3-16
		c-2.7-2-9.3-6.7-9.3-6.7S1206.3,378.5,1219.7,381.1z"/>
	<path fill="#DCC9B7" d="M1203.8,418c0,0,17.3,13,43.7,5.7C1247.5,423.6,1235.5,394.3,1203.8,418z"/>
	<ellipse fill="#EADED4" cx="1224.9" cy="414.2" rx="8.2" ry="2.3"/>
	<path fill="#704727" d="M1246.2,465.2c0,0-6.8-1-15.8,12.2c-4.3,6.3-23.5,17-28.9,10c0,0,3.2,12.2,17.3,10.6
		c9.3-1.1,28.7-4.8,37.8-20.3C1256.7,477.8,1251,464.9,1246.2,465.2z"/>
	<path fill="#704727" d="M1266.3,465.2c0,0,6.8-1,15.8,12.2c4.3,6.3,23.5,17,28.9,10c0,0-3.2,12.2-17.3,10.6
		c-9.3-1.1-28.7-4.8-37.8-20.3C1255.9,477.8,1261.5,464.9,1266.3,465.2z"/>
	<path fill="none" d="M1205.8,421c0,0,1.8,20.3,4.5,22c2.7,1.7,8.8-1.3,9.7-1.7c0.8-0.3,14.7-5.5,21.2-0.7l4.7-15.7"/>
	<path fill="#B6A89F" d="M1246,424c-0.2,2.6-2.4,8.1-2.4,8.1l-0.1,0c-1,3.3-2.2,6.6-2.6,7.8c-2.7-1.1-5.5-1.6-8.6-1.6
		c-5.2,0-10,1.4-13.8,2.6c-3.6,1.1-6.4,1.8-7.3,0.9c-1.4-1.4-2.6-6.5-3.5-11.6l-0.1,0l-2.3-9.9l0.1,0.5c0.1,0.8,2.1,18.5,5.1,21.6
		c0.5,0.5,1.2,0.7,2.1,0.7c1.5,0,3.6-0.6,6.2-1.4c3.8-1.1,8.5-2.6,13.5-2.6c3.2,0,6,0.6,8.7,1.7l0.5,0.2l0.2-0.5
		c0.2-0.5,4-11.4,4.7-15.8C1246.4,424.8,1246.3,424.4,1246,424z"/>
	<path fill="#B6A89F" d="M1248,423.4c-0.1-0.2-6.4-15.2-21.5-15.2c-6.9,0-14.6,3.1-22.9,9.3l-0.5,0.4l0.5,0.4c0.1,0,3.4,2.5,9.3,4.7
		c0,0-7-4.4-8.1-5.1c7.9-5.8,15.2-8.7,21.8-8.7c12.9,0,19.1,11.5,20.4,14.1c-4.2,1.1-12.6,3-12.6,3c4.4-0.2,8.9-0.9,13.4-2.2
		l0.5-0.2L1248,423.4z"/>
	<path fill="#ECE7E2" d="M1303.3,421.5c0,0-1.8,16.9-4.6,19.7s-15.7-6.8-28-1.5c0,0-3.7-10.5-4.3-14.5
		C1265.8,421.2,1303.3,421.5,1303.3,421.5z"/>
	<ellipse fill="#AAA782" cx="1283.9" cy="426.9" rx="13.6" ry="7"/>
	<ellipse cx="1283.9" cy="426.9" rx="5.9" ry="4.5"/>
	<path fill="#DCC9B7" d="M1308.2,418c0,0-17.3,13-43.7,5.7C1264.6,423.6,1276.6,394.3,1308.2,418z"/>
	<ellipse fill="#EADED4" cx="1286.8" cy="413.5" rx="8.2" ry="2.3"/>
	<path fill="#B6A89F" d="M1266,424c0.2,2.6,2.4,8.1,2.4,8.1l0.1,0c1,3.3,2.2,6.6,2.6,7.8c2.7-1.1,5.5-1.6,8.6-1.6
		c5.2,0,10,1.4,13.8,2.6c3.6,1.1,6.4,1.8,7.3,0.9c1.4-1.4,2.6-6.5,3.5-11.6l0.1,0l2.3-9.9l-0.1,0.5c-0.1,0.8-2.1,18.5-5.1,21.6
		c-0.5,0.5-1.2,0.7-2.1,0.7c-1.5,0-3.6-0.6-6.2-1.4c-3.8-1.1-8.5-2.6-13.5-2.6c-3.2,0-6,0.6-8.7,1.7l-0.5,0.2l-0.2-0.5
		c-0.2-0.5-4-11.4-4.7-15.8C1265.7,424.8,1265.7,424.4,1266,424z"/>
	<path fill="#B6A89F" d="M1264.1,423.4c0.1-0.2,6.4-15.2,21.5-15.2c6.9,0,14.6,3.1,22.9,9.3l0.5,0.4l-0.5,0.4
		c-0.1,0-3.4,2.5-9.3,4.7c0,0,7-4.4,8.1-5.1c-7.9-5.8-15.2-8.7-21.8-8.7c-12.9,0-19.1,11.5-20.4,14.1c4.2,1.1,12.6,3,12.6,3
		c-4.4-0.2-8.9-0.9-13.4-2.2l-0.5-0.2L1264.1,423.4z"/>
	<g>
		<path fill="#704727" d="M1204,403.5c0,0,30.2-4.1,44.1,6.6l2.3-9.4C1250.4,400.6,1217.9,393.2,1204,403.5z"/>
		<path fill="#704727" d="M1248.6,411.5l2.5-10.7l0.9-1C1252,399.8,1251.2,408,1248.6,411.5z"/>
		<path fill="#704727" d="M1250.7,409.7l2-8.7l0.8-0.8C1253.5,400.2,1252.8,406.9,1250.7,409.7z"/>
	</g>
	<g>
		<path fill="#704727" d="M1309.1,400.9c0,0-30.4-2.2-43.5,9.4l-2.9-9.2C1262.6,401.1,1294.6,391.5,1309.1,400.9z"/>
		<path fill="#704727" d="M1265.2,411.8l-3.2-10.5l-1-0.9C1261,400.4,1262.4,408.5,1265.2,411.8z"/>
		<path fill="#704727" d="M1262.9,410.1l-2.6-8.6l-0.8-0.7C1259.5,400.8,1260.6,407.4,1262.9,410.1z"/>
	</g>
	<path fill="#F2EDC9" d="M1284.2,571c0,0,10.3,14,15.3,15.7c0,0-3.7,11.3,2,20c0,0-7.3-4-10-7C1288.8,596.6,1284.2,574.6,1284.2,571
		z"/>
	<path fill="#DCD6A5" d="M1294.7,583.2c1.8,1.7,3.4,2.9,4.7,3.4c0,0-3.7,11.3,2,20c0,0-4-2.2-7.1-4.5c-3.9-12.7,0.2-18.7,0.2-18.7
		L1294.7,583.2z"/>
	<path fill="#B1817F" d="M1250.1,499.1c0.5-0.7,1.6-0.8,2.4-0.4c3.4,1.7,7.5,1.7,11,0c0.8-0.4,1.9-0.3,2.4,0.4l0,0
		c0.5,0.7,0.1,1.9-1,2.5c-4.4,2.2-9.5,2.2-13.9,0C1250,501,1249.6,499.8,1250.1,499.1L1250.1,499.1z"/>
	<path fill="#E1A29F" d="M1252.9,428.6l-7.7,52c0,0,5.5,5.2,10.9,5v-59.4C1255.1,425.4,1253.3,424.6,1252.9,428.6z"/>
	<path fill="#C08B89" d="M1268.2,480.6l-7.7-52c-0.6-4.9-3.2-2.6-3.8-1.8c-0.1-0.1-0.3-0.3-0.6-0.5v59.4c0.2,0,0.4,0,0.6,0
		C1262.3,486.2,1268.2,480.6,1268.2,480.6z"/>
	<path fill="#636250" d="M1233.8,710c2.3-0.2,10.8-8.5,10.8-8.5c0.2,0,0.3,0,0.5,0c-0.5-1.7-1-3.6-1-3.6s-10.4-1.2-12.4-1.2
		l-9.5,9.5C1224,711.5,1231.5,710.1,1233.8,710z"/>
	<path fill="#38362B" d="M1223.7,713.3c4,0.2,11.2-0.3,11.2-0.3s11-8.2,11-8.7c0-0.2-0.3-1.5-0.7-2.8c-0.2,0-0.3,0-0.5,0
		c0,0-8.5,8.3-10.8,8.5c-2.3,0.2-9.8,1.5-11.6-3.8C1222.2,706.1,1219.7,713.1,1223.7,713.3z"/>
	<path fill="#38362B" d="M1292.1,713.3c-4,0.2-11.2-0.3-11.2-0.3s-11-8.2-11-8.7c0-0.2,0.3-1.5,0.7-2.8c0.2,0,0.3,0,0.5,0
		c0,0,8.5,8.3,10.8,8.5c2.3,0.2,9.8,1.5,11.6-3.8C1293.6,706.1,1296.1,713.1,1292.1,713.3z"/>
	<path fill="#704727" d="M1300.6,489.6c4.2-5,9.5-23.7,13.9-42.2c-0.4-0.2-0.8-0.4-1.3-0.5v-0.7c-8.1,0.5-9.6,17.2-11.8,22.8
		c-3.4,8.5-10.6,11.8-12.2,21.2c-1.6,9.5-5.5,18.4-12.6,26c-9.1,9.9-12.2,1.6-19.4-4.4c0.1,3.6-1.4,12.8,0.8,15.6
		c0.6,0.7,1.3,1.2,2.2,1.6l16.8-2.7C1285.8,511.8,1295.8,495.2,1300.6,489.6z"/>
	<path fill="#704727" d="M1213.5,489.6c-4.2-5-9.5-23.7-13.9-42.2c0.4-0.2,0.8-0.4,1.3-0.5v-0.7c8.1,0.5,9.6,17.2,11.8,22.8
		c3.4,8.5,10.6,11.8,12.2,21.2c1.6,9.5,5.5,18.4,12.6,26c9.1,9.9,12.2,1.6,19.4-4.4c-0.1,3.6,1.4,12.8-0.8,15.6
		c-0.6,0.7-1.3,1.2-2.2,1.6l-16.8-2.7C1228.3,511.8,1218.3,495.2,1213.5,489.6z"/>
	
		<rect x="1231.4" y="562.9" transform="matrix(0.995 0.1003 -0.1003 0.995 66.7841 -120.5922)" fill="#51413C" width="3" height="82.2"/>
	
		<rect x="1279.9" y="562.9" transform="matrix(-0.995 0.1003 -0.1003 -0.995 2617.0068 1076.4944)" fill="#51413C" width="3" height="82.2"/>
	<path fill="#704727" d="M1203.3,709.1c0,1.5-1.2,2.8-2.8,2.8l0,0c-1.5,0-2.8-1.2-2.8-2.8V517.9c0-1.5,1.2-2.8,2.8-2.8l0,0
		c1.5,0,2.8,1.2,2.8,2.8V709.1z"/>
	<path fill="#704727" d="M1191.7,550c0,1.5-1.2,2.8-2.8,2.8l0,0c-1.5,0-2.8-1.2-2.8-2.8v-32.1c0-1.5,1.2-2.8,2.8-2.8l0,0
		c1.5,0,2.8,1.2,2.8,2.8V550z"/>
	<path fill="#704727" d="M1180,550c0,1.5-1.2,2.8-2.8,2.8l0,0c-1.5,0-2.8-1.2-2.8-2.8v-32.1c0-1.5,1.2-2.8,2.8-2.8l0,0
		c1.5,0,2.8,1.2,2.8,2.8V550z"/>
	<path fill="#704727" d="M1226,550c0,1.5-1.2,2.8-2.8,2.8l0,0c-1.5,0-2.8-1.2-2.8-2.8v-32.1c0-1.5,1.2-2.8,2.8-2.8l0,0
		c1.5,0,2.8,1.2,2.8,2.8V550z"/>
	<path fill="#704727" d="M1214.3,550c0,1.5-1.2,2.8-2.8,2.8l0,0c-1.5,0-2.8-1.2-2.8-2.8v-32.1c0-1.5,1.2-2.8,2.8-2.8l0,0
		c1.5,0,2.8,1.2,2.8,2.8V550z"/>
	<path fill="#704727" d="M1231.3,545.4c0,4.8-3.9,8.8-8.8,8.8h-44c-4.8,0-8.8-3.9-8.8-8.8l0,0c0-4.8,3.9-8.8,8.8-8.8h44
		C1227.4,536.6,1231.3,540.6,1231.3,545.4L1231.3,545.4z"/>
	<path fill="#704727" d="M1298.5,634.5c0,1.5-1.2,2.7-2.7,2.7l0,0c-1.5,0-2.7-1.2-2.7-2.7v-44.8c0-1.5,1.2-2.7,2.7-2.7l0,0
		c1.5,0,2.7,1.2,2.7,2.7V634.5z"/>
	<path fill="#704727" d="M1331.2,632.2c0,1.4-1.3,2.6-2.8,2.6l0,0c-1.6,0-2.8-1.1-2.8-2.6v-42.7c0-1.4,1.3-2.6,2.8-2.6l0,0
		c1.6,0,2.8,1.1,2.8,2.6V632.2z"/>
	<path fill="#704727" d="M1291.8,599.4c-1.3,0-2.4-1.2-2.4-2.7l0,0c0-1.5,1.1-2.7,2.4-2.7h40c1.3,0,2.4,1.2,2.4,2.7l0,0
		c0,1.5-1.1,2.7-2.4,2.7H1291.8z"/>
	<path fill="#DCD6A5" d="M1315.8,607.2l-11-0.1c-5.9-0.1-10.7-4.4-11.5-10c1.6-4.8,6.1-8.1,11.4-8.1l11,0.1
		c5.9,0.1,10.7,4.4,11.5,10C1325.6,603.9,1321.1,607.3,1315.8,607.2z"/>
	<path fill="#C2BE93" d="M1315.6,589.1l-11-0.1c-5.3-0.1-9.8,3.3-11.4,8.1c-0.1-0.6-0.2-1.3-0.2-2c0.1-6.5,5.4-11.8,12-11.7l11,0.1
		c6.5,0.1,11.8,5.4,11.7,12c0,1.3-0.2,2.5-0.6,3.6C1326.3,593.5,1321.5,589.2,1315.6,589.1z"/>
	<path fill="#C2BE93" d="M1300.2,605.1c0.5,0.1,0.9-0.1,1-0.5l1.4-5.4c0.1-0.4-0.2-0.8-0.7-0.9l0,0c-0.5-0.1-0.9,0.1-1,0.5l-1.4,5.4
		C1299.4,604.6,1299.7,605,1300.2,605.1L1300.2,605.1z"/>
	<path fill="#C2BE93" d="M1308.2,606.1c0.5,0.1,0.9-0.1,1-0.5l1.4-5.4c0.1-0.4-0.2-0.8-0.7-0.9l0,0c-0.5-0.1-0.3-0.2-0.4,0.1l-2,5.7
		C1307.4,605.6,1307.7,606,1308.2,606.1L1308.2,606.1z"/>
	<path fill="#C2BE93" d="M1316.9,605.6c0.5,0.1,0.9-0.1,1-0.5l1.4-5.4c0.1-0.4-0.2-0.8-0.7-0.9l0,0c-0.5-0.1-0.5,0.6-0.6,1l-1.9,4.9
		C1316.1,605.1,1316.4,605.5,1316.9,605.6L1316.9,605.6z"/>
	<path fill="#B1AB34" d="M1147.5,406.6c0.4,0.5,0.8,1,1.4,1.4c5.9,4.4,17.2-3.9,23.2-6.6c24.5-11.5,55.9-23.7,83.7-21.3
		c0,0.1,0.4,0.1,1,0.2v-18.7C1256.8,361.6,1193.7,359.3,1147.5,406.6z"/>
	<path fill="#A5A02F" d="M1257.3,361.6v18.7c2.5,0.2,7.2,0.2,7.3-0.1c27.9-1.6,58.9,11.6,83,23.8c3.6,1.8,9.1,5.7,14.2,7.5h8.4
		c0.1-0.1,0.2-0.1,0.3-0.2c0.1-0.1,0.2-0.2,0.3-0.2C1324.4,359.2,1257.3,361.6,1257.3,361.6z"/>
	<path fill="#BFB858" d="M1204.8,303.9c-15.6,9.3-6.1,28-18.9,39.5c-14.2,12.8-26.7,25.3-34.9,43.2c-2.3,5-7.6,14.7-3.5,20.1
		c46.2-47.3,109.3-45,109.3-45v18.7h0v-83.2C1252.3,295.4,1230.4,288.6,1204.8,303.9z"/>
	<path fill="#B0AA50" d="M1257.3,361.6c0,0,67.1-2.5,113.6,49.6c6.2-4.9,0.5-15.9-1.8-21.3c-7.7-18.2-19.8-31-33.5-44.2
		c-12.4-11.9-3.5-28.5-17.6-40c-21.1-17.2-52.7-8.1-52.7-8.1c-1.4-0.6-6.2-0.7-7.6-0.1c0,0-0.3-0.1-0.8-0.3v83.2c0.2,0,0.3,0,0.5,0
		V361.6z"/>
	<path fill="#C2BE93" d="M1197.2,600.8l-0.6-11c-0.3-5.3,2.9-9.9,7.6-11.7c-0.6-0.1-1.3-0.1-2-0.1c-6.5,0.3-11.5,5.9-11.2,12.4
		l0.6,11c0.3,6.5,5.9,11.5,12.4,11.2c1.3-0.1,2.5-0.3,3.6-0.8C1202.1,611.2,1197.5,606.6,1197.2,600.8z"/>
	<path fill="#DCD6A5" d="M1215.3,600.2l-0.6-11c-0.3-5.9-4.8-10.5-10.5-11.1c-4.7,1.8-7.9,6.4-7.6,11.7l0.6,11
		c0.3,5.9,4.8,10.5,10.5,11.1C1212.4,610.1,1215.6,605.5,1215.3,600.2z"/>
	<path fill="#C2BE93" d="M1212.6,584.6c0.1,0.5,0,0.9-0.4,1l-5.3,1.7c-0.4,0.1-0.8-0.2-0.9-0.6l0,0c-0.1-0.5,0-0.9,0.4-1l5.3-1.7
		C1212,583.9,1212.4,584.2,1212.6,584.6L1212.6,584.6z"/>
	<path fill="#C2BE93" d="M1213.9,592.6c0.1,0.5,0,0.9-0.4,1l-5.3,1.7c-0.4,0.1-0.8-0.2-0.9-0.6l0,0c-0.1-0.5-0.2-0.3,0.1-0.4
		l5.6-2.3C1213.3,591.9,1213.7,592.1,1213.9,592.6L1213.9,592.6z"/>
	<path fill="#C2BE93" d="M1213.7,601.3c0.1,0.5,0,0.9-0.4,1l-5.3,1.7c-0.4,0.1-0.8-0.2-0.9-0.6l0,0c-0.1-0.5,0.6-0.5,0.9-0.6
		l4.8-2.1C1213.2,600.6,1213.6,600.8,1213.7,601.3L1213.7,601.3z"/>
	<path fill="#704727" d="M1301.4,617.6c-5.9,0-10.6,4.2-10.6,9.3v21.6c0,5.2,4.8,9.3,10.6,9.3h11.7v-40.3H1301.4z"/>
	<path fill="#623D1F" d="M1332.8,648.6V627c0-5.2-4.8-9.3-10.6-9.3h-9.1v40.3h9.1C1328.1,657.9,1332.8,653.7,1332.8,648.6z"/>
</g>
<g>
	
		<ellipse transform="matrix(0.963 -0.2694 0.2694 0.963 -102.0112 122.9911)" fill="#DED8A6" cx="397.1" cy="433.1" rx="7.7" ry="15"/>
	
		<ellipse transform="matrix(-0.963 -0.2694 0.2694 -0.963 926.3193 993.4191)" fill="#C4BF94" cx="531.3" cy="433.1" rx="7.7" ry="15"/>
	<path fill="#BE4F38" d="M465.9,643.3V661l-10,3.3l-0.7,13.7l-19.7,3l-5.3-29.7c0,0,9-13.3,10.3-13.7
		C441.9,637.3,465.5,637,465.9,643.3z"/>
	<path fill="#BE4F38" d="M465.7,643.3V661l10,3.3l0.7,13.7l19.7,3l5.3-29.7c0,0-9-13.3-10.3-13.7C489.7,637.3,466.1,637,465.7,643.3
		z"/>
	<polygon fill="#B59248" points="496.9,683.5 475.4,680.6 475.2,677.6 476.4,678 496.1,681 	"/>
	<polygon fill="#DCD6A5" points="494.9,683.1 491.5,697.8 479.5,697.9 476.5,680.5 	"/>
	<path fill="#636250" d="M491.9,696.6l9.5,9.5c0,0,2.5,7-1.5,7.2c-4,0.2-11.2-0.3-11.2-0.3s-11-8.2-11-8.7s1.8-6.4,1.8-6.4
		S489.9,696.6,491.9,696.6z"/>
	<path fill="#BE4F38" d="M457.4,563.3h3.8c-5.1-4.1-13.9-10.4-18.4-9.4l-21.4,76.7c0,0,20.5,18.3,24.8,18.7
		c2.3,0.2,7.7-3.3,12.1-6.6h-0.9V563.3z"/>
	<path fill="#BE4F38" d="M472.7,642.6h-0.9c4.4,3.3,9.7,6.8,12.1,6.6c4.3-0.3,24.8-18.7,24.8-18.7l-21.4-76.7
		c-4.5-0.9-13.2,5.3-18.4,9.4h3.8V642.6z"/>
	<path fill="#9B5743" d="M469,563.3h-7.8c2.1,1.7,3.6,3,3.9,3.3C465.4,566.3,466.9,565,469,563.3z"/>
	<path fill="#9B5743" d="M465.1,637.3c-0.5,0.4-3.4,2.8-6.8,5.4h13.6C468.4,640.1,465.5,637.7,465.1,637.3z"/>
	<path fill="#E8DA18" d="M465,637.2v-70.6c0,0,0,0,0.1-0.1c-0.3-0.3-1.8-1.6-3.9-3.3h-3.8v79.3h0.9
		C461.7,640.1,464.6,637.7,465,637.2C465,637.2,465,637.2,465,637.2z"/>
	<path fill="#E8DA18" d="M465.1,566.6v70.6c0,0,0,0-0.1,0.1c0.5,0.4,3.4,2.8,6.8,5.4h0.9v-79.3H469
		C466.9,565,465.4,566.3,465.1,566.6C465.1,566.6,465.1,566.6,465.1,566.6z"/>
	<path fill="#9B5743" d="M465.1,566.6C465.1,566.6,465.1,566.6,465.1,566.6c-0.1,0-0.2,0-0.2,0v70.6c0,0,0,0,0.1,0.1
		c0,0,0.1-0.1,0.1-0.1V566.6z"/>
	<path fill="#393C97" d="M444.2,536.2c0,0,2.8-3.5,5.8-1.7l7.6,16.2C457.6,550.8,443.5,539.6,444.2,536.2z"/>
	<path fill="#26247B" d="M444.2,536.2c0,0-9.2,10.9-9,15.7c0.3,8.1,5.5,15,25.2,12.1l-0.2-11.1C460.3,552.9,443.1,538.5,444.2,536.2
		z"/>
	<path fill="#2E3192" d="M460.4,564l-0.1-9c-0.4-0.1-0.8-0.2-1.3-0.3c0,0-8,3.4-10.5,9.3C451.3,565.2,456.3,564.5,460.4,564z"/>
	<path fill="#884B39" d="M465.7,642.7C465.7,642.7,465.7,642.7,465.7,642.7l-27.5-2.7c-3.1,3.9-8,11.2-8,11.2l0.9,4.9l0.5,1.7
		l13.5-4.5l-0.5,6.5L465.7,642.7z"/>
	<path fill="#884B39" d="M465.9,642.7C465.9,642.7,466,642.7,465.9,642.7l27.5-2.7c3.1,3.9,8,11.2,8,11.2l-0.9,4.9l-0.5,1.7
		l-13.5-4.5l0.5,6.5L465.9,642.7z"/>
	<path d="M463.7,566.7c0,1.4-0.1,0.3-1.3,0.3l0,0c-1.2,0-2.2-1.2-2.2-2.6l-1.5-11.9c0-1.4,2.5-1.8,3.7-1.8l0,0
		c1.2,0,1.5,1.2,1.5,2.6L463.7,566.7z"/>
	<path fill="#393C97" d="M482.9,536.2c0,0-2.8-3.5-5.8-1.7l-7.6,16.2C469.5,550.8,483.6,539.6,482.9,536.2z"/>
	<path fill="#26247B" d="M482.9,536.2c0,0,9.2,10.9,9,15.7c-0.3,8.1-5.5,15-25.2,12.1l0.2-11.1C466.9,552.9,484,538.5,482.9,536.2z"
		/>
	<path fill="#2E3192" d="M466.7,564l0.1-9c0.4-0.1,0.8-0.2,1.3-0.3c0,0,8,3.4,10.5,9.3C475.8,565.2,470.8,564.5,466.7,564z"/>
	<path d="M463.4,566.7c0,1.4,0.1,0.3,1.3,0.3l0,0c1.2,0,2.2-1.2,2.2-2.6l1.5-11.9c0-1.4-2.5-1.8-3.7-1.8l0,0c-1.2,0-1.5,1.2-1.5,2.6
		L463.4,566.7z"/>
	<path fill="#2E3192" d="M449.4,564.3c0,0-0.5,57.3-26.8,66.7c-20.4,7.2,6,33.1,7.3,26.7c4-19,16.3-8.4,16.3-8.4s12-57.3,11.2-84.6
		L449.4,564.3z"/>
	<path fill="#2E3192" d="M478.8,564.3c0,0,0.5,57.3,26.8,66.7c20.4,7.2-6,33.1-7.3,26.7c-4-19-16.3-8.4-16.3-8.4s-12-57.3-11.2-84.6
		L478.8,564.3z"/>
	<polygon fill="#B59248" points="434.7,683.5 456.2,680.6 456.4,677.6 455.2,678 435.5,681 	"/>
	<polygon fill="#DCD6A5" points="436.7,683.1 440.1,697.8 452.1,697.9 455.1,680.5 	"/>
	<circle fill="#E7D31B" cx="419.9" cy="638.2" r="2.5"/>
	<circle fill="#E7D31B" cx="430.9" cy="632.2" r="2.5"/>
	<circle fill="#E7D31B" cx="440.7" cy="621.9" r="2.5"/>
	<circle fill="#E7D31B" cx="446.7" cy="608.4" r="2.5"/>
	<circle fill="#E7D31B" cx="449.9" cy="595.6" r="2.5"/>
	<circle fill="#E7D31B" cx="451.7" cy="582.6" r="2.5"/>
	<circle fill="#E7D31B" cx="477.3" cy="595.6" r="2.5"/>
	<circle fill="#E7D31B" cx="475.5" cy="582.6" r="2.5"/>
	<circle fill="#E7D31B" cx="453.2" cy="569.1" r="2.5"/>
	<circle fill="#E7D31B" cx="508.4" cy="638.2" r="2.5"/>
	<circle fill="#E7D31B" cx="497.4" cy="632.2" r="2.5"/>
	<circle fill="#E7D31B" cx="487.6" cy="621.9" r="2.5"/>
	<circle fill="#E7D31B" cx="481.6" cy="608.4" r="2.5"/>
	<circle fill="#E7D31B" cx="475.1" cy="569.1" r="2.5"/>
	<path fill="#884B39" d="M437.5,571c0,0-10.3,14-15.3,15.7c0,0,3.7,11.3-2,20c0,0,7.3-4,10-7C432.9,596.6,437.5,574.6,437.5,571z"/>
	<path fill="#2E3192" d="M426.9,583.2c-1.8,1.7-3.4,2.9-4.7,3.4c0,0,3.7,11.3-2,20c0,0,4-2.2,7.1-4.5c3.9-12.7-0.2-18.7-0.2-18.7
		L426.9,583.2z"/>
	<path fill="#DED8A6" d="M464.7,377.3c-14.4-5.1-69-21.1-66.4,29.3c0,0,13.5,72.5,22.5,83c9,10.5,33,60.6,36.3,60.5
		c0.1,0,2.1,2.2,2.2,2.2l2-1.5c0,0,1.5,0,3.5-0.1c1.9,0,3.5,0.1,3.5,0.1v0c0.1,0,0.1,0,0.2,0c3.3,0.1,31.2-50.6,40.2-61.1
		c9-10.5,22.5-83,22.5-83C533.7,356.3,479.1,372.3,464.7,377.3z"/>
	<path fill="#C4BF94" d="M433.5,508.5c9.8,15.8,21.4,35.6,25.9,40.9l25.2-22.5c2.2-3.5,4.4-7.2,6.6-10.8
		C459.2,545,440.7,512.8,433.5,508.5z"/>
	<path fill="#C5C195" d="M464.5,529.6l20.5-3.3c8.9-14.5,18.9-31.2,23.6-36.8c9-10.5,22.5-83,22.5-83c0.8-15.9-4.1-25.2-11.6-30.3
		l-55,3.3V529.6z"/>
	<path fill="#704727" d="M499.4,381.3c0,0,22,12.7,24,18.7l-4.7,0.7c0,0,6,18,9.3,18c3.3,0,10.7-1.3,10-10.7c-0.7-9.3-1.3-14,1.3-16
		s9.3-6.7,9.3-6.7S512.7,378.6,499.4,381.3z"/>
	<path fill="#ECE7E2" d="M416.7,421.5c0,0,1.8,16.9,4.6,19.7s15.7-6.8,28-1.5c0,0,3.7-10.5,4.3-14.5
		C454.3,421.2,416.7,421.5,416.7,421.5z"/>
	<ellipse fill="#AAA782" cx="436.1" cy="426.9" rx="13.6" ry="7"/>
	<ellipse cx="436.1" cy="426.9" rx="5.9" ry="4.5"/>
	<path fill="#704727" d="M427.7,381.1c0,0-22,12.7-24,18.7l4.7,0.7c0,0-6,18-9.3,18c-3.3,0-10.7-1.3-10-10.7c0.7-9.3,1.3-14-1.3-16
		c-2.7-2-9.3-6.7-9.3-6.7S414.4,378.5,427.7,381.1z"/>
	<path fill="#DCC9B7" d="M411.9,418c0,0,17.3,13,43.7,5.7C455.5,423.6,443.5,394.3,411.9,418z"/>
	<ellipse fill="#EADED4" cx="432.9" cy="414.2" rx="8.2" ry="2.3"/>
	<path fill="none" d="M413.9,421c0,0,1.8,20.3,4.5,22c2.7,1.7,8.8-1.3,9.7-1.7c0.8-0.3,14.7-5.5,21.2-0.7l4.7-15.7"/>
	<path fill="#B6A89F" d="M454,424c-0.2,2.6-2.4,8.1-2.4,8.1l-0.1,0c-1,3.3-2.2,6.6-2.6,7.8c-2.7-1.1-5.5-1.6-8.6-1.6
		c-5.2,0-10,1.4-13.8,2.6c-3.6,1.1-6.4,1.8-7.3,0.9c-1.4-1.4-2.6-6.5-3.5-11.6l-0.1,0l-2.3-9.9l0.1,0.5c0.1,0.8,2.1,18.5,5.1,21.6
		c0.5,0.5,1.2,0.7,2.1,0.7c1.5,0,3.6-0.6,6.2-1.4c3.8-1.1,8.5-2.6,13.5-2.6c3.2,0,6,0.6,8.7,1.7l0.5,0.2l0.2-0.5
		c0.2-0.5,4-11.4,4.7-15.8C454.4,424.8,454.4,424.4,454,424z"/>
	<path fill="#B6A89F" d="M456,423.4c-0.1-0.2-6.4-15.2-21.5-15.2c-6.9,0-14.6,3.1-22.9,9.3L411,418l0.5,0.4c0.1,0,3.4,2.5,9.3,4.7
		c0,0-7-4.4-8.1-5.1c7.9-5.8,15.2-8.7,21.8-8.7c12.9,0,19.1,11.5,20.4,14.1c-4.2,1.1-12.6,3-12.6,3c4.4-0.2,8.9-0.9,13.4-2.2
		l0.5-0.2L456,423.4z"/>
	<path fill="#ECE7E2" d="M511.3,421.5c0,0-1.8,16.9-4.6,19.7s-15.7-6.8-28-1.5c0,0-3.7-10.5-4.3-14.5
		C473.8,421.2,511.3,421.5,511.3,421.5z"/>
	<ellipse fill="#AAA782" cx="491.9" cy="426.9" rx="13.6" ry="7"/>
	<ellipse cx="491.9" cy="426.9" rx="5.9" ry="4.5"/>
	<path fill="#DCC9B7" d="M516.2,418c0,0-17.3,13-43.7,5.7C472.6,423.6,484.6,394.3,516.2,418z"/>
	<ellipse fill="#EADED4" cx="494.9" cy="413.5" rx="8.2" ry="2.3"/>
	<path fill="#B6A89F" d="M474.1,424c0.2,2.6,2.4,8.1,2.4,8.1l0.1,0c1,3.3,2.2,6.6,2.6,7.8c2.7-1.1,5.5-1.6,8.6-1.6
		c5.2,0,10,1.4,13.8,2.6c3.6,1.1,6.4,1.8,7.3,0.9c1.4-1.4,2.6-6.5,3.5-11.6l0.1,0l2.3-9.9l-0.1,0.5c-0.1,0.8-2.1,18.5-5.1,21.6
		c-0.5,0.5-1.2,0.7-2.1,0.7c-1.5,0-3.6-0.6-6.2-1.4c-3.8-1.1-8.5-2.6-13.5-2.6c-3.2,0-6,0.6-8.7,1.7l-0.5,0.2l-0.2-0.5
		c-0.2-0.5-4-11.4-4.7-15.8C473.7,424.8,473.7,424.4,474.1,424z"/>
	<path fill="#B6A89F" d="M472.1,423.4c0.1-0.2,6.4-15.2,21.5-15.2c6.9,0,14.6,3.1,22.9,9.3l0.5,0.4l-0.5,0.4c-0.1,0-3.4,2.5-9.3,4.7
		c0,0,7-4.4,8.1-5.1c-7.9-5.8-15.2-8.7-21.8-8.7c-12.9,0-19.1,11.5-20.4,14.1c4.2,1.1,12.6,3,12.6,3c-4.4-0.2-8.9-0.9-13.4-2.2
		l-0.5-0.2L472.1,423.4z"/>
	<g>
		<path fill="#704727" d="M412.1,403.5c0,0,30.2-4.1,44.1,6.6l2.3-9.4C458.5,400.6,426,393.2,412.1,403.5z"/>
		<path fill="#704727" d="M456.6,411.5l2.5-10.7l0.9-1C460,399.8,459.2,408,456.6,411.5z"/>
		<path fill="#704727" d="M458.8,409.7l2-8.7l0.8-0.8C461.5,400.2,460.9,406.9,458.8,409.7z"/>
	</g>
	<g>
		<path fill="#704727" d="M517.1,400.9c0,0-30.4-2.2-43.5,9.4l-2.9-9.2C470.6,401.1,502.6,391.5,517.1,400.9z"/>
		<path fill="#704727" d="M473.2,411.8l-3.2-10.5l-1-0.9C469,400.4,470.4,408.5,473.2,411.8z"/>
		<path fill="#704727" d="M470.9,410.1l-2.6-8.6l-0.8-0.7C467.5,400.8,468.7,407.4,470.9,410.1z"/>
	</g>
	<path fill="#884B39" d="M492,571c0,0,10.3,14,15.3,15.7c0,0-3.7,11.3,2,20c0,0-7.3-4-10-7C496.7,596.6,492,574.6,492,571z"/>
	<path fill="#2E3192" d="M502.6,583.2c1.8,1.7,3.4,2.9,4.7,3.4c0,0-3.7,11.3,2,20c0,0-4-2.2-7.1-4.5c-3.9-12.7,0.2-18.7,0.2-18.7
		L502.6,583.2z"/>
	<path fill="#B1817F" d="M474,502.6c-0.5,0.7-1.6,0.8-2.4,0.4c-3.4-1.7-7.5-1.7-11,0c-0.8,0.4-1.9,0.3-2.4-0.4l0,0
		c-0.5-0.7-0.1-1.9,1-2.5c4.4-2.2,9.5-2.2,13.9,0C474.1,500.6,474.5,501.8,474,502.6L474,502.6z"/>
	<path fill="#E1A29F" d="M460.9,428.6l-7.7,52c0,0,5.5,5.2,10.9,5v-59.4C463.1,425.4,461.4,424.6,460.9,428.6z"/>
	<path fill="#C08B89" d="M476.2,480.6l-7.7-52c-0.6-4.9-3.2-2.6-3.8-1.8c-0.1-0.1-0.3-0.3-0.6-0.5v59.4c0.2,0,0.4,0,0.6,0
		C470.3,486.2,476.2,480.6,476.2,480.6z"/>
	<path fill="#636250" d="M441.8,710c2.3-0.2,10.8-8.5,10.8-8.5c0.2,0,0.3,0,0.5,0c-0.5-1.7-1-3.6-1-3.6s-10.4-1.2-12.4-1.2l-9.5,9.5
		C432,711.5,439.5,710.1,441.8,710z"/>
	<path fill="#38362B" d="M431.7,713.3c4,0.2,11.2-0.3,11.2-0.3s11-8.2,11-8.7c0-0.2-0.3-1.5-0.7-2.8c-0.2,0-0.3,0-0.5,0
		c0,0-8.5,8.3-10.8,8.5c-2.3,0.2-9.8,1.5-11.6-3.8C430.2,706.1,427.7,713.1,431.7,713.3z"/>
	<path fill="#38362B" d="M500.1,713.3c-4,0.2-11.2-0.3-11.2-0.3s-11-8.2-11-8.7c0-0.2,0.3-1.5,0.7-2.8c0.2,0,0.3,0,0.5,0
		c0,0,8.5,8.3,10.8,8.5c2.3,0.2,9.8,1.5,11.6-3.8C501.6,706.1,504.1,713.1,500.1,713.3z"/>
	<g>
		<path fill="#332C2B" d="M499.9,637.3c-15,9.1-29.4,13.2-34,9.9c0.3,1,0.7,2.1,1.3,3l26.4,43.2c0.4,0.7,0.9,1.4,1.5,1.9
			c0.1,0.3,0.2,0.5,0.4,0.8c0.3,0.5,0.7,0.9,1.1,1.3c5.2,4.3,20.1,1,35.1-8.1c0.3-0.2,0.6-0.4,0.8-0.5l-31.8-52.1
			C500.5,636.9,500.2,637.1,499.9,637.3z"/>
		<path fill="#221D1D" d="M555,661.8c-0.1-0.6-0.3-1.1-0.6-1.6c-0.1-0.2-0.3-0.5-0.5-0.7c-0.3-0.8-0.6-1.5-1.1-2.2l-26.4-43.2
			c-0.6-1-1.3-1.8-2.1-2.6c0.8,5.5-9,16.2-23.5,25.2l31.8,52.1C547,679.7,556.4,668.3,555,661.8z"/>
		<path fill="#414042" d="M488.5,618.6c-15.6,9.5-25.8,21.1-22.8,25.9c0.2,0.4,0.6,0.7,0.9,1c4.4,3.2,18.2-0.7,32.5-9.5
			c14.3-8.7,24.1-19.3,23.3-24.6c-0.1-0.5-0.2-0.9-0.4-1.3C519,605.3,504,609.1,488.5,618.6z"/>
		<path fill="#CCC9C9" d="M489.3,619.9c-14,8.6-23.4,18.8-20.9,22.9c0.2,0.3,0.5,0.6,0.8,0.8c3.8,2.7,16.2-1,29.1-8.9
			c12.9-7.9,21.8-17.2,21.2-21.8c-0.1-0.4-0.2-0.8-0.4-1.1C516.7,607.7,503.3,611.3,489.3,619.9z"/>
		<g>
			
				<rect x="485.7" y="643.9" transform="matrix(0.8535 -0.521 0.521 0.8535 -273.4525 350.4548)" fill="#FFFFFF" width="2" height="35.5"/>
		</g>
		<g>
			
				<rect x="500.1" y="638.3" transform="matrix(0.8535 -0.5211 0.5211 0.8535 -267.6984 357.0407)" fill="#FFFFFF" width="2" height="32.5"/>
		</g>
		<g>
			
				<rect x="513.6" y="629.6" transform="matrix(0.8533 -0.5215 0.5215 0.8533 -261.3893 363.1713)" fill="#FFFFFF" width="2" height="32.9"/>
		</g>
		<g>
			
				<rect x="526.7" y="619" transform="matrix(0.8535 -0.5211 0.5211 0.8535 -254.4761 368.2587)" fill="#FFFFFF" width="2" height="35.4"/>
		</g>
		<path fill="#FFFFFF" d="M499.7,675.8c0.8,1.3,0,3.2-1.8,4.3l0,0c-1.8,1.1-3.8,0.9-4.6-0.3l-2.5-4.1c-0.8-1.3,0-3.2,1.8-4.3l0,0
			c1.8-1.1,3.8-0.9,4.6,0.3L499.7,675.8z"/>
		<path fill="#FFFFFF" d="M513.6,667.3c0.8,1.3,0,3.2-1.8,4.3l0,0c-1.8,1.1-3.8,0.9-4.6-0.3l-2.5-4.1c-0.8-1.3,0-3.2,1.8-4.3l0,0
			c1.8-1.1,3.8-0.9,4.6,0.3L513.6,667.3z"/>
		<path fill="#FFFFFF" d="M527.2,659c0.8,1.3,0,3.2-1.8,4.3l0,0c-1.8,1.1-3.8,0.9-4.6-0.3l-2.5-4.1c-0.8-1.3,0-3.2,1.8-4.3l0,0
			c1.8-1.1,3.8-0.9,4.6,0.3L527.2,659z"/>
		<path fill="#FFFFFF" d="M540.7,650.8c0.8,1.3,0,3.2-1.8,4.3l0,0c-1.8,1.1-3.8,0.9-4.6-0.3l-2.5-4.1c-0.8-1.3,0-3.2,1.8-4.3l0,0
			c1.8-1.1,3.8-0.9,4.6,0.3L540.7,650.8z"/>
		<g>
			<path fill="#FFFFFF" d="M540.1,652.2l-1,1.7l16,9.2c0-0.5-0.1-0.9-0.1-1.3c-0.1-0.5-0.3-1-0.5-1.4L540.1,652.2z"/>
			<path fill="#FFFFFF" d="M538.6,667.4l-0.6-12.8l-2,0.1l0.5,11.5l-10-5.7l-1,1.7l11.1,6.4l0.7,14.2l-12.2-7l-0.6-12.9l-2,0.1
				l0.5,11.7l-10.1-5.8l-1,1.7l11.2,6.4l0.7,15.4l-12.4-7.1l-0.6-14.1l-2,0.1l0.6,12.8l-11.2-6.4l-1,1.7l12.2,7l0.6,12
				c0.6-0.1,1.3-0.3,2-0.5l-0.5-10.4l11.2,6.4c1-0.5,2-1,3-1.5l-0.7-14.5l12.2,7l0,0.3c0.7-0.5,1.4-1,2-1.5l-0.1,0l-0.6-14.2l10,5.7
				c0.5-0.5,0.9-1,1.3-1.6L538.6,667.4z"/>
			<path fill="#FFFFFF" d="M495.2,679.6l0.8,17.4c0.2,0.2,0.4,0.4,0.5,0.5c0.4,0.4,1,0.7,1.5,0.9l-0.9-18.9L495.2,679.6z"/>
		</g>
		<path fill="#FFFFFF" d="M470.1,655l1.2,1.9c8.1-0.6,20.3-5.2,32.8-12.9c12.5-7.6,22.2-16.3,26.4-23.3l-1.2-1.9
			c-3.4,6.2-12.6,15.1-26.3,23.5C489.3,650.8,477.2,654.8,470.1,655z"/>
	</g>
	<path fill="#0C0C0C" d="M425.5,562.9c-1.6-0.5-3.3,0.4-3.7,2l-1.6,5.3c-0.3,1.1,0,2.2,0.7,2.9L406,622.9c-0.2,0.8,0.2,1.6,1,1.9
		c0.8,0.2,1.6-0.2,1.9-1l14.9-49.8c1-0.2,1.9-1,2.2-2.1l1.6-5.3C428,565,427.1,563.4,425.5,562.9z"/>
	<path fill="#0C0C0C" d="M485.9,627.6c1.3,1,3.2,0.9,4.2-0.4l3.5-4.3c0.7-0.9,0.8-2,0.5-3l33.1-40.1c0.5-0.6,0.4-1.6-0.2-2.1
		c-0.6-0.5-1.6-0.4-2.1,0.2l-33.1,40.1c-1-0.2-2.1,0.2-2.8,1l-3.5,4.3C484.5,624.7,484.6,626.5,485.9,627.6z"/>
	<path fill="#C2BE93" d="M404,601.7l2.7-10.7c1.3-5.1,5.8-8.6,10.8-8.9c-0.6-0.3-1.2-0.5-1.9-0.7c-6.3-1.6-12.8,2.2-14.4,8.5
		l-2.7,10.7c-1.6,6.3,2.2,12.8,8.5,14.4c1.2,0.3,2.4,0.4,3.6,0.3C405.5,613.1,402.6,607.4,404,601.7z"/>
	<path fill="#DCD6A5" d="M421.5,606.5l2.7-10.7c1.4-5.7-1.5-11.4-6.7-13.7c-5,0.3-9.4,3.8-10.8,8.9l-2.7,10.7
		c-1.4,5.7,1.5,11.4,6.7,13.7C415.7,615.1,420.2,611.7,421.5,606.5z"/>
	<path fill="#C2BE93" d="M423.5,590.9c0,0.5-0.3,0.9-0.7,0.9h-5.6c-0.4,0-0.7-0.4-0.7-0.9l0,0c0-0.5,0.3-0.9,0.7-0.9h5.6
		C423.2,590,423.5,590.4,423.5,590.9L423.5,590.9z"/>
	<path fill="#C2BE93" d="M422.4,598.9c0,0.5-0.3,0.9-0.7,0.9h-5.6c-0.4,0-0.7-0.4-0.7-0.9l0,0c0-0.5-0.1-0.4,0.3-0.4l6-0.5
		C422,598,422.4,598.4,422.4,598.9L422.4,598.9z"/>
	<path fill="#C2BE93" d="M419.6,607.1c0,0.5-0.3,0.9-0.7,0.9h-5.6c-0.4,0-0.7-0.4-0.7-0.9l0,0c0-0.5,0.7-0.3,1.1-0.3l5.2-0.5
		C419.3,606.3,419.6,606.6,419.6,607.1L419.6,607.1z"/>
	<path fill="#C2BE93" d="M515.6,606.5l6.2-9.1c3-4.4,2.6-10-0.4-13.9c0.6,0.3,1.2,0.6,1.7,1c5.4,3.7,6.8,11,3.1,16.4L520,610
		c-3.7,5.4-11,6.8-16.4,3.1c-1-0.7-1.9-1.6-2.7-2.5C506.1,613,512.3,611.4,515.6,606.5z"/>
	<path fill="#DCD6A5" d="M500.5,596.7l6.2-9.1c3.3-4.8,9.6-6.4,14.7-4.1c3.1,4,3.4,9.6,0.4,13.9l-6.2,9.1c-3.3,4.8-9.6,6.4-14.7,4.1
		C497.8,606.7,497.5,601,500.5,596.7z"/>
	<path fill="#C2BE93" d="M510.9,584.8c-0.4,0.3-0.4,0.8-0.2,1.1l3.7,4.2c0.3,0.3,0.8,0.3,1.1,0l0,0c0.4-0.3,0.4-0.8,0.2-1.1
		l-3.7-4.2C511.7,584.5,511.2,584.5,510.9,584.8L510.9,584.8z"/>
	<path fill="#C2BE93" d="M505.6,590.9c-0.4,0.3-0.4,0.8-0.2,1.1l3.7,4.2c0.3,0.3,0.8,0.3,1.1,0l0,0c0.4-0.3,0.4-0.1,0.1-0.4
		l-3.6-4.9C506.5,590.6,506,590.6,505.6,590.9L505.6,590.9z"/>
	<path fill="#C2BE93" d="M501.4,598.4c-0.4,0.3-0.4,0.8-0.2,1.1l3.7,4.2c0.3,0.3,0.8,0.3,1.1,0l0,0c0.4-0.3-0.2-0.7-0.5-1l-3-4.3
		C502.3,598.1,501.8,598.1,501.4,598.4L501.4,598.4z"/>
	<path fill="#1A1A1A" d="M447.5,298.3c-2.1,0.1-6.2,0.3-10.5,1.5c-83.1,14.6-101,92-101,92c-14.8-3.1-9.3,13-9.3,13
		c9.6,15.9,55.6-5.9,55.6-5.9c1.9-0.7,3.7-1.3,5.5-2c0.5,3.4,2.3,5.6,6.1,5.7c5.6,0.2,8.6-6.4,16-13.1c21.9-6.8,39.6-10.6,54-12.2
		v-93.3C458.2,285.5,452.7,297.7,447.5,298.3z"/>
	<path fill="#121212" d="M522.7,389.4c7.4,6.7,10.4,13.3,16,13.1c3.9-0.1,5.7-2.3,6.1-5.7c1.8,0.6,3.6,1.3,5.5,2
		c0,0,46,21.8,55.6,5.9c0,0,5.5-16-9.3-13c0,0-17.9-77.3-101-92c-4.2-1.1-8.4-1.4-10.5-1.5c-5.6-0.6-11.6-14.6-17.8-14.6
		c-0.4,0-0.7,0-1.1,0c-0.4,0-0.7,0-1.1,0c-0.4,0-0.8,0.1-1.2,0.2v93.3c0.8-0.1,1.6-0.2,2.3-0.3C481.1,378.4,499.6,382.2,522.7,389.4
		z"/>
</g>
</svg>
