<svg version="1.1" id="Layer_1" xmlns="http://www.w3.org/2000/svg" xmlns:xlink="http://www.w3.org/1999/xlink" x="0px" y="0px"
	 width="300px" height="500px" viewBox="15 350 300 300" enable-background="new 0 0 1400 980" xml:space="preserve">
<ellipse fill="#333" cx="173.6" cy="709.8" rx="64.5" ry="17.2"/>
<g>
	
		<ellipse transform="matrix(0.963 -0.2694 0.2694 0.963 -112.8172 44.2535)" fill="#DED8A6" cx="104.8" cy="433.1" rx="7.7" ry="15"/>
	
		<ellipse transform="matrix(-0.963 -0.2694 0.2694 -0.963 352.6019 914.6815)" fill="#C4BF94" cx="239.1" cy="433.1" rx="7.7" ry="15"/>
	<path fill="#E1A626" d="M173.6,643.3V661l-10,3.3l-0.7,13.7l-19.7,3l-5.3-29.7c0,0,9-13.3,10.3-13.7
		C149.6,637.3,173.3,637,173.6,643.3z"/>
	<path fill="#E1A626" d="M173.5,643.3V661l10,3.3l0.7,13.7l19.7,3l5.3-29.7c0,0-9-13.3-10.3-13.7C197.5,637.3,173.8,637,173.5,643.3
		z"/>
	<polygon fill="#B59248" points="204.6,683.5 183.1,680.6 183,677.6 184.2,678 203.8,681 	"/>
	<polygon fill="#DCD6A5" points="202.6,683.1 199.2,697.8 187.2,697.9 184.2,680.5 	"/>
	<path fill="#636250" d="M199.7,696.6l9.5,9.5c0,0,2.5,7-1.5,7.2c-4,0.2-11.2-0.3-11.2-0.3s-11-8.2-11-8.7s1.8-6.4,1.8-6.4
		S197.7,696.6,199.7,696.6z"/>
	<path fill="#665555" d="M165.1,563.3h3.8c-5.1-4.1-13.9-10.4-18.4-9.4l-21.4,76.7c0,0,20.5,18.3,24.8,18.7
		c2.3,0.2,7.7-3.3,12.1-6.6h-0.9V563.3z"/>
	<path fill="#665555" d="M180.5,642.6h-0.9c4.4,3.3,9.7,6.8,12.1,6.6c4.3-0.3,24.8-18.7,24.8-18.7l-21.4-76.7
		c-4.5-0.9-13.2,5.3-18.4,9.4h3.8V642.6z"/>
	<path fill="#9B5743" d="M176.7,563.3h-7.8c2.1,1.7,3.6,3,3.9,3.3C173.1,566.3,174.6,565,176.7,563.3z"/>
	<path fill="#9B5743" d="M172.8,637.3c-0.5,0.4-3.4,2.8-6.8,5.4h13.6C176.2,640.1,173.3,637.7,172.8,637.3z"/>
	<path fill="#E8DA18" d="M172.7,637.2v-70.6c0,0,0,0,0.1-0.1c-0.3-0.3-1.8-1.6-3.9-3.3h-3.8v79.3h0.9
		C169.4,640.1,172.3,637.7,172.7,637.2C172.8,637.2,172.7,637.2,172.7,637.2z"/>
	<path fill="#E8DA18" d="M172.9,566.6v70.6c0,0,0,0-0.1,0.1c0.5,0.4,3.4,2.8,6.8,5.4h0.9v-79.3h-3.8
		C174.6,565,173.1,566.3,172.9,566.6C172.8,566.6,172.9,566.6,172.9,566.6z"/>
	<path fill="#9B5743" d="M172.9,566.6C172.9,566.6,172.8,566.6,172.9,566.6c-0.1,0-0.2,0-0.2,0v70.6c0,0,0,0,0.1,0.1
		c0,0,0.1-0.1,0.1-0.1V566.6z"/>
	<path fill="#553333" d="M152,536.2c0,0,2.8-3.5,5.8-1.7l7.6,16.2C165.3,550.8,151.2,539.6,152,536.2z"/>
	<path fill="#553333" d="M152,536.2c0,0-9.2,10.9-9,15.7c0.3,8.1,5.5,15,25.2,12.1l-0.2-11.1C168,552.9,150.9,538.5,152,536.2z"/>
	<path fill="#553333" d="M168.2,564l-0.1-9c-0.4-0.1-0.8-0.2-1.3-0.3c0,0-8,3.4-10.5,9.3C159.1,565.2,164.1,564.5,168.2,564z"/>
	<path fill="#BF8E1E" d="M173.5,642.7C173.5,642.7,173.5,642.7,173.5,642.7l-27.5-2.7c-3.1,3.9-8,11.2-8,11.2l0.9,4.9l0.5,1.7
		l13.5-4.5l-0.5,6.5L173.5,642.7z"/>
	<path fill="#BF8E1E" d="M173.7,642.7C173.7,642.7,173.7,642.7,173.7,642.7l27.5-2.7c3.1,3.9,8,11.2,8,11.2l-0.9,4.9l-0.5,1.7
		l-13.5-4.5l0.5,6.5L173.7,642.7z"/>
	<path d="M171.4,566.7c0,1.4-0.1,0.3-1.3,0.3l0,0c-1.2,0-2.2-1.2-2.2-2.6l-1.5-11.9c0-1.4,2.5-1.8,3.7-1.8l0,0
		c1.2,0,1.5,1.2,1.5,2.6L171.4,566.7z"/>
	<path fill="#553333" d="M190.6,536.2c0,0-2.8-3.5-5.8-1.7l-7.6,16.2C177.3,550.8,191.4,539.6,190.6,536.2z"/>
	<path fill="#553333" d="M190.6,536.2c0,0,9.2,10.9,9,15.7c-0.3,8.1-5.5,15-25.2,12.1l0.2-11.1C174.6,552.9,191.7,538.5,190.6,536.2
		z"/>
	<path fill="#553333" d="M174.4,564l0.1-9c0.4-0.1,0.8-0.2,1.3-0.3c0,0,8,3.4,10.5,9.3C183.5,565.2,178.5,564.5,174.4,564z"/>
	<path d="M171.2,566.7c0,1.4,0.1,0.3,1.3,0.3l0,0c1.2,0,2.2-1.2,2.2-2.6l1.5-11.9c0-1.4-2.5-1.8-3.7-1.8l0,0c-1.2,0-1.5,1.2-1.5,2.6
		L171.2,566.7z"/>
	<path fill="#554444" d="M196.6,560.2c0,0,27.3,11.2,17,59.7L196.6,560.2z"/>
	<path fill="#553333" d="M157.1,564.3c0,0-0.5,57.3-26.8,66.7c-20.4,7.2,6,33.1,7.3,26.7c4-19,16.3-8.4,16.3-8.4s12-57.3,11.2-84.6
		L157.1,564.3z"/>
	<path fill="#553333" d="M186.6,564.3c0,0,0.5,57.3,26.8,66.7c20.4,7.2-6,33.1-7.3,26.7c-4-19-16.3-8.4-16.3-8.4s-12-57.3-11.2-84.6
		L186.6,564.3z"/>
	<polygon fill="#B59248" points="142.5,683.5 164,680.6 164.1,677.6 162.9,678 143.3,681 	"/>
	<polygon fill="#DCD6A5" points="144.5,683.1 147.8,697.8 159.8,697.9 162.8,680.5 	"/>
	<g>
		<g>
			<path fill="#A67C54" d="M204.2,651.4c-51.7-32.7-59.7-86.9-60-89.2c0,0,0.4-3.9,1-3.3c3,3.7,8.8,4.7,8.8,4.7
				c0.1,0.5,15.7,55.4,63.7,85.9l-6,6.6L204.2,651.4z"/>
		</g>
	</g>
	<circle fill="#E7D31B" cx="127.6" cy="638.2" r="2.5"/>
	<circle fill="#E7D31B" cx="138.6" cy="632.2" r="2.5"/>
	<circle fill="#E7D31B" cx="148.4" cy="621.9" r="2.5"/>
	<circle fill="#E7D31B" cx="154.4" cy="608.4" r="2.5"/>
	<circle fill="#E7D31B" cx="160.9" cy="569.1" r="2.5"/>
	<circle fill="#E7D31B" cx="216.2" cy="638.2" r="2.5"/>
	<circle fill="#E7D31B" cx="205.2" cy="632.2" r="2.5"/>
	<circle fill="#E7D31B" cx="195.3" cy="621.9" r="2.5"/>
	<circle fill="#E7D31B" cx="189.3" cy="608.4" r="2.5"/>
	<circle fill="#E7D31B" cx="182.8" cy="569.1" r="2.5"/>
	<path fill="#554444" d="M145.3,571c0,0-10.3,14-15.3,15.7c0,0,3.7,11.3-2,20c0,0,7.3-4,10-7C140.6,596.6,145.3,574.6,145.3,571z"/>
	<path fill="#553333" d="M134.7,583.2c-1.8,1.7-3.4,2.9-4.7,3.4c0,0,3.7,11.3-2,20c0,0,4-2.2,7.1-4.5c3.9-12.7-0.2-18.7-0.2-18.7
		L134.7,583.2z"/>
	<path fill="#C2BE93" d="M111.8,601.7l2.7-10.7c1.3-5.1,5.8-8.6,10.8-8.9c-0.6-0.3-1.2-0.5-1.9-0.7c-6.3-1.6-12.8,2.2-14.4,8.5
		l-2.7,10.7c-1.6,6.3,2.2,12.8,8.5,14.4c1.2,0.3,2.4,0.4,3.6,0.3C113.3,613.1,110.3,607.4,111.8,601.7z"/>
	<path fill="#DCD6A5" d="M129.2,606.5l2.7-10.7c1.4-5.7-1.5-11.4-6.7-13.7c-5,0.3-9.4,3.8-10.8,8.9l-2.7,10.7
		c-1.4,5.7,1.5,11.4,6.7,13.7C123.4,615.1,127.9,611.7,129.2,606.5z"/>
	<path fill="#DED8A6" d="M113.5,631.6c-0.5,1.6-2.1,2.5-3.7,2l0,0c-1.6-0.5-2.5-2.1-2-3.7l26-89.8c0.5-1.6,2.1-2.5,3.7-2l0,0
		c1.6,0.5,2.5,2.1,2,3.7L113.5,631.6z"/>
	<path fill="#DED8A6" d="M172.5,377.3c-14.4-5.1-69-21.1-66.4,29.3c0,0,13.5,72.5,22.5,83c9,10.5,33,60.6,36.3,60.5
		c0.1,0,2.1,2.2,2.2,2.2l2-1.5c0,0,1.5,0,3.5-0.1c1.9,0,3.5,0.1,3.5,0.1v0c0.1,0,0.1,0,0.2,0c3.3,0.1,31.2-50.6,40.2-61.1
		c9-10.5,22.5-83,22.5-83C241.4,356.3,186.9,372.3,172.5,377.3z"/>
	<path fill="#C4BF94" d="M141.3,508.5c9.8,15.8,21.4,35.6,25.9,40.9l25.2-22.5c2.2-3.5,4.4-7.2,6.6-10.8
		C166.9,545,148.4,512.8,141.3,508.5z"/>
	<path fill="#C5C195" d="M172.2,529.6l20.5-3.3c8.9-14.5,18.9-31.2,23.6-36.8c9-10.5,22.5-83,22.5-83c0.8-15.9-4.1-25.2-11.6-30.3
		l-55,3.3V529.6z"/>
	<path fill="#704727" d="M207.1,381.3c0,0,22,12.7,24,18.7l-4.7,0.7c0,0,6,18,9.3,18c3.3,0,10.7-1.3,10-10.7c-0.7-9.3-1.3-14,1.3-16
		s9.3-6.7,9.3-6.7S220.4,378.6,207.1,381.3z"/>
	<path fill="#414042" d="M42.6,362.9c0,0,57.8-115.6,198.4-67.4c0,0,17.3,3.9,23.1,13.5c5.8,9.6,17.3,11.6,17.3,11.6
		s-3.9,28.9-1.9,48.2c1.9,19.3,15.4,67.4-3.9,63.6c-19.3-3.9,3.9-69.4-181.1-48.2c0,0-59.7,12.5-66.5-8.7
		C28.1,375.5,26.2,355.2,42.6,362.9z"/>
	<circle fill="#E7D31B" cx="260.6" cy="339.3" r="5.9"/>
	<path fill="#ECE7E2" d="M124.5,421.5c0,0,1.8,16.9,4.6,19.7s15.7-6.8,28-1.5c0,0,3.7-10.5,4.3-14.5
		C162,421.2,124.5,421.5,124.5,421.5z"/>
	<ellipse fill="#AAA782" cx="143.9" cy="426.9" rx="13.6" ry="7"/>
	<ellipse cx="143.9" cy="426.9" rx="5.9" ry="4.5"/>
	<path fill="#704727" d="M135.4,381.1c0,0-22,12.7-24,18.7l4.7,0.7c0,0-6,18-9.3,18c-3.3,0-10.7-1.3-10-10.7c0.7-9.3,1.3-14-1.3-16
		c-2.7-2-9.3-6.7-9.3-6.7S122.1,378.5,135.4,381.1z"/>
	<path fill="#DCC9B7" d="M119.6,418c0,0,17.3,13,43.7,5.7C163.3,423.6,151.3,394.3,119.6,418z"/>
	<ellipse fill="#EADED4" cx="140.6" cy="414.2" rx="8.2" ry="2.3"/>
	<path fill="#704727" d="M161.6,467.6c0,0-7-1-16.3,12.7c-4.5,6.6-24.3,17.7-30,10.3c0,0,3.3,12.7,18,11c9.7-1.1,29.8-5,39.2-21
		C172.5,480.6,166.6,467.3,161.6,467.6z"/>
	<path fill="#704727" d="M182.5,467.6c0,0,7-1,16.3,12.7c4.5,6.6,24.3,17.7,30,10.3c0,0-3.3,12.7-18,11c-9.7-1.1-29.8-5-39.2-21
		C171.6,480.6,177.5,467.3,182.5,467.6z"/>
	<path fill="none" d="M121.6,421c0,0,1.8,20.3,4.5,22c2.7,1.7,8.8-1.3,9.7-1.7c0.8-0.3,14.7-5.5,21.2-0.7l4.7-15.7"/>
	<path fill="#B6A89F" d="M161.8,424c-0.2,2.6-2.4,8.1-2.4,8.1l-0.1,0c-1,3.3-2.2,6.6-2.6,7.8c-2.7-1.1-5.5-1.6-8.6-1.6
		c-5.2,0-10,1.4-13.8,2.6c-3.6,1.1-6.4,1.8-7.3,0.9c-1.4-1.4-2.6-6.5-3.5-11.6l-0.1,0l-2.3-9.9l0.1,0.5c0.1,0.8,2.1,18.5,5.1,21.6
		c0.5,0.5,1.2,0.7,2.1,0.7c1.5,0,3.6-0.6,6.2-1.4c3.8-1.1,8.5-2.6,13.5-2.6c3.2,0,6,0.6,8.7,1.7l0.5,0.2l0.2-0.5
		c0.2-0.5,4-11.4,4.7-15.8C162.1,424.8,162.1,424.4,161.8,424z"/>
	<path fill="#B6A89F" d="M163.7,423.4c-0.1-0.2-6.4-15.2-21.5-15.2c-6.9,0-14.6,3.1-22.9,9.3l-0.5,0.4l0.5,0.4
		c0.1,0,3.4,2.5,9.3,4.7c0,0-7-4.4-8.1-5.1c7.9-5.8,15.2-8.7,21.8-8.7c12.9,0,19.1,11.5,20.4,14.1c-4.2,1.1-12.6,3-12.6,3
		c4.4-0.2,8.9-0.9,13.4-2.2l0.5-0.2L163.7,423.4z"/>
	<path fill="#ECE7E2" d="M219.1,421.5c0,0-1.8,16.9-4.6,19.7s-15.7-6.8-28-1.5c0,0-3.7-10.5-4.3-14.5
		C181.5,421.2,219.1,421.5,219.1,421.5z"/>
	<ellipse fill="#AAA782" cx="199.7" cy="426.9" rx="13.6" ry="7"/>
	<ellipse cx="199.7" cy="426.9" rx="5.9" ry="4.5"/>
	<path fill="#DCC9B7" d="M224,418c0,0-17.3,13-43.7,5.7C180.3,423.6,192.3,394.3,224,418z"/>
	<ellipse fill="#EADED4" cx="202.6" cy="413.5" rx="8.2" ry="2.3"/>
	<path fill="#B6A89F" d="M181.8,424c0.2,2.6,2.4,8.1,2.4,8.1l0.1,0c1,3.3,2.2,6.6,2.6,7.8c2.7-1.1,5.5-1.6,8.6-1.6
		c5.2,0,10,1.4,13.8,2.6c3.6,1.1,6.4,1.8,7.3,0.9c1.4-1.4,2.6-6.5,3.5-11.6l0.1,0l2.3-9.9l-0.1,0.5c-0.1,0.8-2.1,18.5-5.1,21.6
		c-0.5,0.5-1.2,0.7-2.1,0.7c-1.5,0-3.6-0.6-6.2-1.4c-3.8-1.1-8.5-2.6-13.5-2.6c-3.2,0-6,0.6-8.7,1.7l-0.5,0.2l-0.2-0.5
		c-0.2-0.5-4-11.4-4.7-15.8C181.4,424.8,181.5,424.4,181.8,424z"/>
	<path fill="#B6A89F" d="M179.8,423.4c0.1-0.2,6.4-15.2,21.5-15.2c6.9,0,14.6,3.1,22.9,9.3l0.5,0.4l-0.5,0.4c-0.1,0-3.4,2.5-9.3,4.7
		c0,0,7-4.4,8.1-5.1c-7.9-5.8-15.2-8.7-21.8-8.7c-12.9,0-19.1,11.5-20.4,14.1c4.2,1.1,12.6,3,12.6,3c-4.4-0.2-8.9-0.9-13.4-2.2
		l-0.5-0.2L179.8,423.4z"/>
	<g>
		<path fill="#704727" d="M119.8,403.5c0,0,30.2-4.1,44.1,6.6l2.3-9.4C166.2,400.6,133.7,393.2,119.8,403.5z"/>
		<path fill="#704727" d="M164.3,411.5l2.5-10.7l0.9-1C167.8,399.8,166.9,408,164.3,411.5z"/>
		<path fill="#704727" d="M166.5,409.7l2-8.7l0.8-0.8C169.3,400.2,168.6,406.9,166.5,409.7z"/>
	</g>
	<g>
		<path fill="#704727" d="M224.9,400.9c0,0-30.4-2.2-43.5,9.4l-2.9-9.2C178.4,401.1,210.3,391.5,224.9,400.9z"/>
		<path fill="#704727" d="M180.9,411.8l-3.2-10.5l-1-0.9C176.8,400.4,178.1,408.5,180.9,411.8z"/>
		<path fill="#704727" d="M178.7,410.1l-2.6-8.6l-0.8-0.7C175.3,400.8,176.4,407.4,178.7,410.1z"/>
	</g>
	<path fill="#4A4B4C" d="M284.5,400.4c-1.6-11.7-4.2-24-5-31.7c-0.1-1.3-0.2-2.7-0.3-4.1c-26.6-9.7-103.6-32.1-197.3-8
		c0,0-20.6,6.3-37.1,2.2c-1.5,2.6-2.3,4.1-2.3,4.1c-1.3-0.6-2.4-1-3.5-1.3c4.3,3.6,11.7,7,24.1,6.3
		C89.1,366.6,231.3,336.3,284.5,400.4z"/>
	<path fill="#C2BE93" d="M131.2,590.9c0,0.5-0.3,0.9-0.7,0.9h-5.6c-0.4,0-0.7-0.4-0.7-0.9l0,0c0-0.5,0.3-0.9,0.7-0.9h5.6
		C130.9,590,131.2,590.4,131.2,590.9L131.2,590.9z"/>
	<path fill="#C2BE93" d="M130.1,598.9c0,0.5-0.3,0.9-0.7,0.9h-5.6c-0.4,0-0.7-0.4-0.7-0.9l0,0c0-0.5-0.1-0.4,0.3-0.4l6-0.5
		C129.8,598,130.1,598.4,130.1,598.9L130.1,598.9z"/>
	<path fill="#C2BE93" d="M127.3,607.1c0,0.5-0.3,0.9-0.7,0.9H121c-0.4,0-0.7-0.4-0.7-0.9l0,0c0-0.5,0.7-0.3,1.1-0.3l5.2-0.5
		C127,606.3,127.3,606.6,127.3,607.1L127.3,607.1z"/>
	<path fill="#B1817F" d="M181.8,502.6c-0.5,0.7-1.6,0.8-2.4,0.4c-3.4-1.7-7.5-1.7-11,0c-0.8,0.4-1.9,0.3-2.4-0.4l0,0
		c-0.5-0.7-0.1-1.9,1-2.5c4.4-2.2,9.5-2.2,13.9,0C181.9,500.6,182.3,501.8,181.8,502.6L181.8,502.6z"/>
	<path fill="#E1A29F" d="M168.6,428.6l-7.7,52c0,0,5.5,5.2,10.9,5v-59.4C170.9,425.4,169.1,424.6,168.6,428.6z"/>
	<path fill="#C08B89" d="M184,480.6l-7.7-52c-0.6-4.9-3.2-2.6-3.8-1.8c-0.1-0.1-0.3-0.3-0.6-0.5v59.4c0.2,0,0.4,0,0.6,0
		C178.1,486.2,184,480.6,184,480.6z"/>
	<path fill="#636250" d="M149.6,710c2.3-0.2,10.8-8.5,10.8-8.5c0.2,0,0.3,0,0.5,0c-0.5-1.7-1-3.6-1-3.6s-10.4-1.2-12.4-1.2l-9.5,9.5
		C139.8,711.5,147.2,710.1,149.6,710z"/>
	<path fill="#38362B" d="M139.4,713.3c4,0.2,11.2-0.3,11.2-0.3s11-8.2,11-8.7c0-0.2-0.3-1.5-0.7-2.8c-0.2,0-0.3,0-0.5,0
		c0,0-8.5,8.3-10.8,8.5c-2.3,0.2-9.8,1.5-11.6-3.8C137.9,706.1,135.4,713.1,139.4,713.3z"/>
	<path fill="#38362B" d="M207.8,713.3c-4,0.2-11.2-0.3-11.2-0.3s-11-8.2-11-8.7c0-0.2,0.3-1.5,0.7-2.8c0.2,0,0.3,0,0.5,0
		c0,0,8.5,8.3,10.8,8.5c2.3,0.2,9.8,1.5,11.6-3.8C209.3,706.1,211.8,713.1,207.8,713.3z"/>
</g>
</svg>